<?xml version="1.0" encoding="UTF-8" standalone="no"?>
<!-- Created with Inkscape (http://www.inkscape.org/) -->

<svg
   width="512"
   height="512"
   viewBox="0 0 135.46666 135.46667"
   version="1.1"
   id="svg1"
   inkscape:version="1.3 (0e150ed6c4, 2023-07-21)"
   sodipodi:docname="Summon Bat.svg"
   xmlns:inkscape="http://www.inkscape.org/namespaces/inkscape"
   xmlns:sodipodi="http://sodipodi.sourceforge.net/DTD/sodipodi-0.dtd"
   xmlns="http://www.w3.org/2000/svg"
   xmlns:svg="http://www.w3.org/2000/svg">
  <sodipodi:namedview
     id="namedview1"
     pagecolor="#ffffff"
     bordercolor="#000000"
     borderopacity="0.25"
     inkscape:showpageshadow="2"
     inkscape:pageopacity="0.0"
     inkscape:pagecheckerboard="0"
     inkscape:deskcolor="#d1d1d1"
     inkscape:document-units="mm"
     inkscape:zoom="0.64504647"
     inkscape:cx="185.25797"
     inkscape:cy="165.87952"
     inkscape:window-width="1366"
     inkscape:window-height="707"
     inkscape:window-x="0"
     inkscape:window-y="30"
     inkscape:window-maximized="1"
     inkscape:current-layer="layer1"
     showgrid="true"
     showguides="true">
    <inkscape:grid
       id="grid1"
       units="px"
       originx="0"
       originy="0"
       spacingx="8.4666666"
       spacingy="8.4666666"
       empcolor="#0099e5"
       empopacity="0.30196078"
       color="#0099e5"
       opacity="0.14901961"
       empspacing="5"
       dotted="false"
       gridanglex="30"
       gridanglez="30"
       visible="true"
       snapvisiblegridlinesonly="false" />
  </sodipodi:namedview>
  <defs
     id="defs1" />
  <g
     inkscape:label="Слой 1"
     inkscape:groupmode="layer"
     id="layer1"
     style="display:inline">
    <path
       style="fill:#333333;fill-opacity:1;stroke:#000000;stroke-width:1.4222"
       d="m 64.979989,55.979599 c 0,0 0,-11.753735 11.013371,-11.753735 11.013371,0 11.013371,11.753735 11.013371,11.753735 v 5.876868 l 5.506686,-11.753735 v 11.753735 l 5.506688,-17.630603 v 11.753735 l 5.506675,-17.630603 h 22.02675 l -4.72425,5.948822 -6.28912,-0.07195 -2.44553,4.981837 6.39852,-0.04198 -2.85805,4.604783 -12.10832,2.209096 -5.506675,17.630602 V 61.856467 L 92.513417,79.487068 V 67.733333 c 0,0 -11.013372,29.384338 -27.533428,29.384338 H 53.966617 L 64.979989,91.240802 59.473302,67.733333 53.966617,79.487068 48.459931,61.856467 42.953245,73.610201 35.779645,57.34942 24.651577,56.239119 20.926503,50.102732 33.410206,49.910163 31.939874,44.225864 H 15.419817 L 9.9131314,38.348996 H 42.953245 v 17.630603 l 5.506686,-11.753735 5.506686,23.507469 z"
       id="path29"
       sodipodi:nodetypes="csccccccccccccccccccscccccccccccccccccc" />
    <circle
       style="fill:#ff0000;fill-opacity:1;stroke:#000000;stroke-width:1.5875;stroke-dasharray:none"
       id="path30"
       cx="71.966667"
       cy="55.033329"
       r="4.2333331" />
    <ellipse
       style="fill:#ff0000;fill-opacity:1;stroke:#000000;stroke-width:1.5875;stroke-dasharray:none"
       id="path31"
       cx="82.213417"
       cy="55.033329"
       rx="2.453248"
       ry="4.2333331" />
    <path
       style="fill:#ff0000;fill-opacity:1;stroke:#000000;stroke-width:1.5875;stroke-dasharray:none"
       d="m 68.484378,62.534831 4.555434,7.149078 1.593446,-1.855319 2.5312,4.273572 2.523538,-4.929487 2.223156,3.407384 2.75627,-8.514599 -3.224786,3.279495 -1.835639,-2.890363 -2.699825,4.098188 -2.185173,-3.195055 -1.919596,2.340498 z"
       id="path32"
       sodipodi:nodetypes="ccccccccccccc" />
  </g>
</svg>
