<?xml version="1.0" encoding="UTF-8" standalone="no"?>
<!-- Created with Inkscape (http://www.inkscape.org/) -->

<svg
   width="512"
   height="512"
   viewBox="0 0 135.46666 135.46667"
   version="1.1"
   id="svg1"
   inkscape:version="1.3 (0e150ed6c4, 2023-07-21)"
   sodipodi:docname="Telekinesis.svg"
   xmlns:inkscape="http://www.inkscape.org/namespaces/inkscape"
   xmlns:sodipodi="http://sodipodi.sourceforge.net/DTD/sodipodi-0.dtd"
   xmlns="http://www.w3.org/2000/svg"
   xmlns:svg="http://www.w3.org/2000/svg">
  <sodipodi:namedview
     id="namedview1"
     pagecolor="#ffffff"
     bordercolor="#000000"
     borderopacity="0.25"
     inkscape:showpageshadow="2"
     inkscape:pageopacity="0.0"
     inkscape:pagecheckerboard="0"
     inkscape:deskcolor="#d1d1d1"
     inkscape:document-units="mm"
     inkscape:zoom="0.91223346"
     inkscape:cx="263.09055"
     inkscape:cy="235.68528"
     inkscape:window-width="1366"
     inkscape:window-height="707"
     inkscape:window-x="0"
     inkscape:window-y="30"
     inkscape:window-maximized="1"
     inkscape:current-layer="layer1"
     showgrid="true"
     showguides="true">
    <inkscape:grid
       id="grid1"
       units="px"
       originx="0"
       originy="0"
       spacingx="8.4666666"
       spacingy="8.4666666"
       empcolor="#0099e5"
       empopacity="0.30196078"
       color="#0099e5"
       opacity="0.14901961"
       empspacing="5"
       dotted="false"
       gridanglex="30"
       gridanglez="30"
       visible="true"
       snapvisiblegridlinesonly="false" />
  </sodipodi:namedview>
  <defs
     id="defs1" />
  <g
     inkscape:label="Слой 1"
     inkscape:groupmode="layer"
     id="layer1"
     style="display:inline">
    <path
       style="fill:#ffff00;fill-opacity:1;stroke:#000000;stroke-width:2.11667"
       d="m 42.333333,126.99999 -25.438318,-57.379404 3.591376,-27.854942 8.104671,2.541409 -3.191063,23.426274 6.767135,10.350965 10.166199,6.582368 -9.127314,-28.481221 0.660647,-30.785441 h 8.466666 l -0.660647,30.785441 5.377754,13.034343 9.599857,6.980212 -7.686966,-29.283121 1.836669,-29.983541 h 8.466666 l -1.836668,29.983542 8.477181,22.977868 2.137189,-25.541362 8.155632,-27.420048 9.196792,5.883904 -7.431119,24.385418 -0.741419,30.592156 7.442413,15.338516 15.698874,-1.915932 15.27347,-26.066509 8.23183,7.691585 -16.7948,25.573747 -20.670406,21.995333 z"
       id="path7"
       sodipodi:nodetypes="cccccccccccccccccccccccccccccc" />
    <path
       sodipodi:type="star"
       style="fill:#ff00ff;fill-opacity:0.5;stroke:#000000;stroke-width:2.11667"
       id="path8"
       inkscape:flatsided="false"
       sodipodi:sides="10"
       sodipodi:cx="63.007782"
       sodipodi:cy="79.69355"
       sodipodi:r1="35.833771"
       sodipodi:r2="17.916885"
       sodipodi:arg1="0.70306458"
       sodipodi:arg2="1.0172238"
       inkscape:rounded="0"
       inkscape:randomized="0"
       d="m 90.344088,102.86218 -17.91687,-7.9276 -0.92208,19.57066 L 61.669813,97.560408 49.420487,112.85142 51.423467,93.361704 32.525721,98.532421 45.601935,83.942229 27.274066,77.017611 46.428845,72.899903 35.671476,56.524918 l 17.91687,7.927602 0.92208,-19.570664 9.835325,16.944836 12.249326,-15.291015 -2.00298,19.48972 18.897746,-5.170718 -13.076214,14.590192 18.327869,6.924619 -19.154779,4.117707 z"
       inkscape:transform-center-x="2.6258281"
       inkscape:transform-center-y="-0.82691175"
       transform="translate(3.6885183,-0.84142129)" />
  </g>
</svg>
