<?xml version="1.0" encoding="UTF-8" standalone="no"?>
<!-- Created with Inkscape (http://www.inkscape.org/) -->

<svg
   width="512"
   height="512"
   viewBox="0 0 135.46666 135.46667"
   version="1.1"
   id="svg1"
   inkscape:version="1.3 (0e150ed6c4, 2023-07-21)"
   sodipodi:docname="Walk.svg"
   xmlns:inkscape="http://www.inkscape.org/namespaces/inkscape"
   xmlns:sodipodi="http://sodipodi.sourceforge.net/DTD/sodipodi-0.dtd"
   xmlns="http://www.w3.org/2000/svg"
   xmlns:svg="http://www.w3.org/2000/svg">
  <sodipodi:namedview
     id="namedview1"
     pagecolor="#ffffff"
     bordercolor="#000000"
     borderopacity="0.25"
     inkscape:showpageshadow="2"
     inkscape:pageopacity="0.0"
     inkscape:pagecheckerboard="0"
     inkscape:deskcolor="#d1d1d1"
     inkscape:document-units="mm"
     inkscape:zoom="0.64504647"
     inkscape:cx="185.25797"
     inkscape:cy="382.91815"
     inkscape:window-width="1320"
     inkscape:window-height="704"
     inkscape:window-x="0"
     inkscape:window-y="0"
     inkscape:window-maximized="1"
     inkscape:current-layer="layer1"
     showgrid="true"
     showguides="true">
    <inkscape:grid
       id="grid1"
       units="px"
       originx="0"
       originy="0"
       spacingx="8.4666666"
       spacingy="8.4666666"
       empcolor="#0099e5"
       empopacity="0.30196078"
       color="#0099e5"
       opacity="0.14901961"
       empspacing="5"
       dotted="false"
       gridanglex="30"
       gridanglez="30"
       visible="true"
       snapvisiblegridlinesonly="false" />
  </sodipodi:namedview>
  <defs
     id="defs1" />
  <g
     inkscape:label="Слой 1"
     inkscape:groupmode="layer"
     id="layer1">
    <g
       id="g10"
       transform="matrix(-0.85714286,0,0,1,126.52419,0)">
      <path
         style="fill:#3584e4;stroke:#000000;stroke-width:2.11667;stroke-dasharray:none"
         d="m 127,50.799997 c -8.46667,16.93333 0,42.333327 0,42.333327 L 84.666666,76.199994 V 59.266661 Z"
         id="path10" />
      <path
         style="fill:#3584e4;stroke:#000000;stroke-width:2.11667;stroke-dasharray:none"
         d="m 76.199999,84.66666 8.466667,25.4 c -42.333333,0 -42.333333,-8.46667 -42.333333,-25.4 z"
         id="path9"
         sodipodi:nodetypes="cccc" />
      <path
         style="fill:#3584e4;stroke:#000000;stroke-width:2.11667;stroke-dasharray:none"
         d="M 42.333333,42.33333 59.266666,16.933332 93.133332,25.399998 76.199999,50.799997 Z"
         id="path8" />
      <path
         style="fill:#1c71d8;stroke:#000000;stroke-width:2.11667;stroke-dasharray:none"
         d="m 8.4666666,67.733328 c 0,16.933332 8.4666664,33.866662 33.8666664,33.866662 25.4,0 59.266667,-8.466666 59.266667,-33.866663 0,-25.399997 -33.866668,-33.866663 -59.266667,-33.866663 -25.4,0 -33.8666664,16.933332 -33.8666664,33.866664 z"
         id="path3"
         sodipodi:nodetypes="sssss" />
      <path
         style="fill:none;stroke:#000000;stroke-width:2.11667;stroke-dasharray:none"
         d="m 42.333333,42.33333 c 0,0 8.466666,8.466667 8.466666,25.399997 0,16.933333 -11.438527,25.399997 -11.438527,25.399997"
         id="path4" />
      <circle
         style="fill:#a51d2d;stroke:#000000;stroke-width:2.11667;stroke-dasharray:none"
         id="path5"
         cx="25.4"
         cy="59.266663"
         r="8.4666662" />
      <path
         style="fill:none;stroke:#000000;stroke-width:2.11667;stroke-dasharray:none"
         d="m 16.933333,50.799997 c 16.933333,0 16.933333,-8.466667 16.933333,-8.466667"
         id="path6" />
      <path
         style="fill:none;stroke:#000000;stroke-width:2.11667;stroke-dasharray:none"
         d="m 16.933333,84.66666 c 20.169007,0 16.933333,8.466664 16.933333,8.466664"
         id="path7" />
    </g>
  </g>
</svg>
