<?xml version="1.0" encoding="UTF-8" standalone="no"?>
<!-- Created with Inkscape (http://www.inkscape.org/) -->

<svg
   width="512"
   height="512"
   viewBox="0 0 135.46666 135.46667"
   version="1.1"
   id="svg1"
   inkscape:version="1.3 (0e150ed6c4, 2023-07-21)"
   sodipodi:docname="Spruce.svg"
   xmlns:inkscape="http://www.inkscape.org/namespaces/inkscape"
   xmlns:sodipodi="http://sodipodi.sourceforge.net/DTD/sodipodi-0.dtd"
   xmlns="http://www.w3.org/2000/svg"
   xmlns:svg="http://www.w3.org/2000/svg">
  <sodipodi:namedview
     id="namedview1"
     pagecolor="#ffffff"
     bordercolor="#000000"
     borderopacity="0.25"
     inkscape:showpageshadow="2"
     inkscape:pageopacity="0.0"
     inkscape:pagecheckerboard="0"
     inkscape:deskcolor="#d1d1d1"
     inkscape:document-units="mm"
     inkscape:zoom="0.64504647"
     inkscape:cx="171.30549"
     inkscape:cy="333.30932"
     inkscape:window-width="1320"
     inkscape:window-height="704"
     inkscape:window-x="0"
     inkscape:window-y="0"
     inkscape:window-maximized="1"
     inkscape:current-layer="layer1"
     showgrid="true"
     showguides="true">
    <inkscape:grid
       id="grid1"
       units="px"
       originx="0"
       originy="0"
       spacingx="8.4666666"
       spacingy="8.4666666"
       empcolor="#0099e5"
       empopacity="0.30196078"
       color="#0099e5"
       opacity="0.14901961"
       empspacing="5"
       dotted="false"
       gridanglex="30"
       gridanglez="30"
       visible="true"
       snapvisiblegridlinesonly="false" />
  </sodipodi:namedview>
  <defs
     id="defs1" />
  <g
     inkscape:label="Слой 1"
     inkscape:groupmode="layer"
     id="layer1"
     style="display:inline">
    <path
       style="fill:#800000;stroke:#000000;stroke-width:2.11667"
       d="m 59.266666,25.399998 h 16.933333 l 8.466667,93.133322 8.466666,8.46667 H 42.333333 l 8.466666,-8.46667 z"
       id="path9" />
    <path
       style="fill:#008000;stroke:#000000;stroke-width:2.11667"
       d="M 67.733332,8.466666 33.866666,50.799997 50.799999,42.33333 25.4,76.199994 42.333333,67.733327 8.4666666,110.06666 25.4,101.59999 v 8.46667 l 16.933333,-8.46667 8.466667,8.46667 16.933332,-8.46667 16.933334,8.46667 8.466666,-8.46667 16.933338,8.46667 v -8.46667 L 127,110.06666 93.133332,67.733327 110.06667,76.199994 84.666666,42.33333 101.6,50.799997 Z"
       id="path8"
       sodipodi:nodetypes="ccccccccccccccccccccc" />
    <path
       style="fill:#ffffff;stroke:#000000;stroke-width:2.11667;stroke-dasharray:none"
       d="M 33.866666,50.799997 67.733332,8.466666 101.6,50.799997 67.733333,25.399998 Z"
       id="path1"
       sodipodi:nodetypes="ccccc" />
    <path
       style="fill:#ffffff;stroke:#000000;stroke-width:2.11667;stroke-dasharray:none"
       d="M 59.266667,50.799997 V 42.33333 H 76.2 v 8.466667 L 67.733333,42.33333 Z"
       id="path2" />
    <path
       style="fill:#ffffff;stroke:#000000;stroke-width:2.11667;stroke-dasharray:none"
       d="m 50.8,76.199995 v -8.466667 h 33.866667 v 8.466667 L 67.733333,67.733328 Z"
       id="path3" />
    <path
       style="fill:#ffffff;stroke:#000000;stroke-width:2.11667;stroke-dasharray:none"
       d="M 33.866667,84.66666 42.333333,67.733327 8.4666666,110.06666 Z"
       id="path4"
       sodipodi:nodetypes="cccc" />
    <path
       style="fill:#ffffff;stroke:#000000;stroke-width:2.11667;stroke-dasharray:none"
       d="M 93.133333,67.733328 101.6,84.66666 l 25.4,25.4 z"
       id="path5"
       sodipodi:nodetypes="cccc" />
    <path
       style="fill:#ffffff;stroke:#000000;stroke-width:2.11667;stroke-dasharray:none"
       d="M 42.333333,84.66666 33.866666,93.133324 67.733332,84.66666 98.757363,93.133324 91.068945,84.66666 Z"
       id="path6" />
  </g>
</svg>
