<?xml version="1.0" encoding="UTF-8" standalone="no"?>
<!-- Created with Inkscape (http://www.inkscape.org/) -->

<svg
   width="512"
   height="512"
   viewBox="0 0 135.46666 135.46667"
   version="1.1"
   id="svg1"
   inkscape:version="1.3 (0e150ed6c4, 2023-07-21)"
   sodipodi:docname="Chest.svg"
   xmlns:inkscape="http://www.inkscape.org/namespaces/inkscape"
   xmlns:sodipodi="http://sodipodi.sourceforge.net/DTD/sodipodi-0.dtd"
   xmlns="http://www.w3.org/2000/svg"
   xmlns:svg="http://www.w3.org/2000/svg">
  <sodipodi:namedview
     id="namedview1"
     pagecolor="#ffffff"
     bordercolor="#000000"
     borderopacity="0.25"
     inkscape:showpageshadow="2"
     inkscape:pageopacity="0.0"
     inkscape:pagecheckerboard="0"
     inkscape:deskcolor="#d1d1d1"
     inkscape:document-units="mm"
     inkscape:zoom="0.64504647"
     inkscape:cx="179.05687"
     inkscape:cy="263.54691"
     inkscape:window-width="1366"
     inkscape:window-height="707"
     inkscape:window-x="0"
     inkscape:window-y="30"
     inkscape:window-maximized="1"
     inkscape:current-layer="layer1"
     showgrid="true"
     showguides="true">
    <inkscape:grid
       id="grid1"
       units="px"
       originx="0"
       originy="0"
       spacingx="8.4666666"
       spacingy="8.4666666"
       empcolor="#0099e5"
       empopacity="0.30196078"
       color="#0099e5"
       opacity="0.14901961"
       empspacing="5"
       dotted="false"
       gridanglex="30"
       gridanglez="30"
       visible="true"
       snapvisiblegridlinesonly="false" />
  </sodipodi:namedview>
  <defs
     id="defs1" />
  <g
     inkscape:label="Слой 1"
     inkscape:groupmode="layer"
     id="layer1">
    <rect
       style="fill:#865e3c;stroke:#000000;stroke-width:2.117"
       id="rect17"
       width="118.53333"
       height="118.53333"
       x="8.4666662"
       y="8.4666662" />
    <rect
       style="fill:#865e3c;stroke:#000000;stroke-width:2.117"
       id="rect18"
       width="118.53333"
       height="59.266663"
       x="8.4666662"
       y="8.4666662" />
    <rect
       style="fill:#f6d32d;stroke:#000000;stroke-width:2.117"
       id="rect19"
       width="16.933332"
       height="30.368675"
       x="59.266666"
       y="54.297989" />
    <path
       style="fill:#000000;stroke:none;stroke-width:2.117"
       id="path19"
       d="m 69.263119,79.731099 c -0.462479,-0.238247 -0.848373,-0.642302 -0.996098,-1.152213 -0.03633,-0.125396 -0.04224,-0.257669 -0.06336,-0.386506 -0.02418,-0.533918 0.09603,-1.072531 0.33274,-1.552604 0.117324,-0.237945 0.250044,-0.415052 0.399153,-0.63242 0.35492,-0.441897 0.796382,-0.80957 1.262631,-1.128953 0.04804,-0.03266 0.102124,-0.05785 0.144121,-0.09798 0.06445,-0.0616 0.10962,-0.141185 0.172382,-0.204508 0.07433,-0.07499 0.16029,-0.137548 0.237752,-0.209296 0.08911,-0.08253 0.173119,-0.170441 0.261813,-0.253423 0.08717,-0.08155 0.186404,-0.150878 0.265702,-0.240106 0.08533,-0.09602 0.150297,-0.20836 0.225446,-0.31254 0.126233,-0.34404 0.311598,-0.761888 0.350542,-1.130977 0.03839,-0.36382 -0.03357,-0.726511 -0.116555,-1.077111 -0.267242,-0.646549 -0.70572,-1.223983 -1.247843,-1.667224 -0.09434,-0.07713 -0.196771,-0.143798 -0.295159,-0.215696 -2.095013,-1.201722 -2.350101,-1.492009 -3.755371,-2.110814 -0.03309,-0.01458 -0.645885,-0.275304 -0.683559,-0.294003 -0.109501,-0.05434 -0.425546,-0.240842 -0.319509,-0.180017 0.904598,0.518904 1.810131,1.036169 2.715194,1.554255 -0.389919,-0.249655 -0.953809,-0.676132 -0.886576,-1.214882 0.01196,-0.09571 0.05687,-0.184337 0.08531,-0.276508 0.38648,-0.69674 1.065607,-1.074475 1.789417,-1.338696 0.156945,-0.03872 0.477247,-0.135099 0.650488,-0.113665 0.09714,0.01201 0.18568,0.06289 0.275056,0.102798 0.0974,0.04349 0.37701,0.199636 0.284274,0.146931 -2.98677,-1.697394 -3.669919,-2.243706 -2.576259,-1.39932 0.363831,0.358315 0.616874,0.831205 0.512157,1.35586 -0.02003,0.100335 -0.06285,0.194736 -0.09427,0.292103 -0.189336,0.363381 -0.543951,0.87417 -0.995254,0.922771 -0.104645,0.01127 -0.208843,-0.02633 -0.313267,-0.03951 -1.338323,-0.80133 0.892914,0.538832 2.571293,1.413722 0.0858,0.04472 -0.144966,-0.129165 -0.207352,-0.203118 -0.185668,-0.220091 -0.24343,-0.393711 -0.283773,-0.669563 0.02551,-0.443743 0.278879,-0.580607 0.686848,-0.614256 1.18306,0.741542 -0.305996,-0.195916 -2.902263,-1.595406 -0.07346,-0.0396 0.14333,0.08992 0.198623,0.152432 0.17989,0.203388 0.233299,0.476559 0.276834,0.732882 -0.0028,0.08485 0.01045,0.336855 -0.06842,0.416907 -0.03369,0.0342 -0.09461,0.02093 -0.14261,0.02005 -0.08439,-0.0016 -0.171786,-2.33e-4 -0.251725,-0.02731 -0.107593,-0.03645 -0.400084,-0.215386 -0.300945,-0.159922 0.901086,0.504127 1.804564,1.003959 2.706849,1.505937 -0.472223,-0.386313 -0.862129,-0.945364 -0.665361,-1.580645 0.02545,-0.08215 0.07206,-0.15618 0.108098,-0.23427 0.213738,-0.294166 0.471178,-0.492384 0.855832,-0.389649 0.07637,0.0204 0.143663,0.06599 0.215495,0.09898 1.272799,0.77416 -0.872881,-0.534429 -2.684269,-1.500341 -0.07411,-0.03952 0.124071,0.114258 0.1763,0.180038 0.12723,0.160243 0.153492,0.266221 0.124039,0.456785 -0.09966,0.16129 -0.159496,0.211722 -0.355463,0.17218 -0.260667,-0.0526 -0.410027,-0.172836 -0.403685,-0.16927 1.006076,0.565891 2.013403,1.129554 3.020105,1.694328 -0.18193,-0.133413 -0.106278,-0.05956 -0.233423,-0.214735 0,0 -3.462491,-1.554761 -3.462491,-1.554761 v 0 c 0.109548,0.283043 0.03876,0.146381 0.216162,0.407998 1.135205,0.650433 2.25611,1.326486 3.405616,1.951294 0.199178,0.108263 0.631076,0.01 0.810419,-0.103118 0.184438,-0.116298 0.228891,-0.226203 0.344617,-0.402696 0.06342,-0.31106 0.07417,-0.494107 -0.07914,-0.788141 -0.04723,-0.09058 -0.08189,-0.201102 -0.167735,-0.256471 -2.963659,-1.911607 -2.1609,-1.621063 -3.651806,-2.117678 -0.09949,-0.0083 -0.198705,-0.02842 -0.298469,-0.02474 -0.502581,0.01855 -0.849857,0.338513 -1.037365,0.782209 -0.110871,0.372837 -0.200644,0.72971 -0.131926,1.123852 0.07895,0.452797 0.338616,0.821031 0.606319,1.181044 1.130453,0.655183 2.239883,1.34806 3.391358,1.965545 0.349363,0.187346 0.919313,0.09407 1.160203,-0.231442 0.06843,-0.09247 0.0888,-0.47398 0.09788,-0.569791 -0.02914,-0.325889 -0.08027,-0.57555 -0.182555,-0.887087 -0.02996,-0.09125 -0.01617,-0.22026 -0.09766,-0.271065 -3.202448,-1.996234 -2.143657,-2.039948 -3.683373,-1.907125 -0.07886,0.02511 -0.160618,0.04247 -0.23657,0.07534 -0.426802,0.184706 -0.639659,0.577316 -0.671803,1.027351 0.0089,0.388874 0.03035,0.559393 0.238416,0.901102 0.05918,0.0972 0.100991,0.217723 0.19699,0.278834 3.151341,2.006105 2.107465,1.811594 3.718388,2.042102 0.125926,-0.02244 0.255513,-0.0297 0.377775,-0.06727 0.332377,-0.102164 0.68014,-0.330317 0.893506,-0.60891 0.07681,-0.100295 0.236683,-0.469858 0.282728,-0.57086 0.06409,-0.193992 0.179348,-0.510659 0.202221,-0.713912 0.05472,-0.486261 -0.180612,-0.913389 -0.434324,-1.30612 -1.121741,-1.181865 -0.324384,-0.389414 -3.634245,-2.211168 -0.169183,-0.09312 -0.519319,-0.120857 -0.700574,-0.09836 -0.113697,0.0141 -0.538727,0.183496 -0.626772,0.216902 -0.118332,0.05539 -0.240914,0.102487 -0.354994,0.166172 -0.131128,0.0732 -0.57136,0.384172 -0.679585,0.46477 -0.230336,0.171534 -0.500293,0.37725 -0.688954,0.597458 -0.08754,0.102174 -0.152588,0.221652 -0.22888,0.332478 -0.06606,0.126135 -0.157052,0.242083 -0.198178,0.378399 -0.115745,0.383651 0.05286,0.732078 0.264369,1.036667 0.07558,0.108839 0.147798,0.221967 0.241059,0.316097 0.09158,0.09244 0.20584,0.15924 0.308761,0.238861 1.126619,0.652862 2.249122,1.312886 3.379861,1.958591 0.324594,0.185359 0.683268,0.308774 1.020567,0.468106 0.108955,0.05147 0.427921,0.2212 0.324379,0.15956 -0.892096,-0.53109 -1.793949,-1.04562 -2.690924,-1.568429 0.279945,0.157885 0.417613,0.219022 0.667433,0.427628 0.390387,0.325982 0.71356,0.739902 0.931995,1.197922 0.187589,0.540525 0.286673,1.050687 0.09373,1.613974 -0.03731,0.108937 -0.100105,0.207407 -0.150156,0.311113 -0.0663,0.08475 -0.12682,0.174376 -0.198914,0.254265 -0.225782,0.250203 -0.517186,0.46388 -0.806614,0.634912 -0.09013,0.05326 -0.191672,0.08599 -0.280138,0.141968 -0.04998,0.03162 -0.08791,0.07913 -0.131863,0.1187 -0.412305,0.41044 -0.753345,0.889968 -1.128956,1.33291 -0.07414,0.113548 -0.156371,0.222207 -0.222424,0.340643 -0.06624,0.118755 -0.117362,0.245351 -0.173482,0.369205 -0.127328,0.28099 -0.241232,0.523912 -0.313849,0.825571 -0.05161,0.214392 -0.09443,0.665819 -0.118179,0.880018 0.01151,0.178786 0.03342,0.66099 0.0806,0.839639 0.0629,0.238186 0.173305,0.351229 0.294005,0.553093 0.04059,0.06789 0.06995,0.142354 0.113493,0.208386 0.0217,0.03289 0.05386,0.0575 0.08079,0.08626 z" />
  </g>
</svg>
