<?xml version="1.0" encoding="UTF-8" standalone="no"?>
<!-- Created with Inkscape (http://www.inkscape.org/) -->

<svg
   width="512"
   height="512"
   viewBox="0 0 135.46666 135.46667"
   version="1.1"
   id="svg1"
   inkscape:version="1.3 (0e150ed6c4, 2023-07-21)"
   sodipodi:docname="Grave.svg"
   xmlns:inkscape="http://www.inkscape.org/namespaces/inkscape"
   xmlns:sodipodi="http://sodipodi.sourceforge.net/DTD/sodipodi-0.dtd"
   xmlns="http://www.w3.org/2000/svg"
   xmlns:svg="http://www.w3.org/2000/svg">
  <sodipodi:namedview
     id="namedview1"
     pagecolor="#ffffff"
     bordercolor="#000000"
     borderopacity="0.25"
     inkscape:showpageshadow="2"
     inkscape:pageopacity="0.0"
     inkscape:pagecheckerboard="0"
     inkscape:deskcolor="#d1d1d1"
     inkscape:document-units="mm"
     inkscape:zoom="0.64504647"
     inkscape:cx="182.15742"
     inkscape:cy="286.80104"
     inkscape:window-width="1320"
     inkscape:window-height="704"
     inkscape:window-x="0"
     inkscape:window-y="0"
     inkscape:window-maximized="1"
     inkscape:current-layer="layer1"
     showgrid="true"
     showguides="true">
    <inkscape:grid
       id="grid1"
       units="px"
       originx="0"
       originy="0"
       spacingx="8.4666666"
       spacingy="8.4666666"
       empcolor="#0099e5"
       empopacity="0.30196078"
       color="#0099e5"
       opacity="0.14901961"
       empspacing="5"
       dotted="false"
       gridanglex="30"
       gridanglez="30"
       visible="true"
       snapvisiblegridlinesonly="false" />
  </sodipodi:namedview>
  <defs
     id="defs1" />
  <g
     inkscape:label="Слой 1"
     inkscape:groupmode="layer"
     id="layer1">
    <path
       style="fill:#9a9996;fill-opacity:1;stroke:#000000;stroke-width:2.11667"
       d="m 25.4,126.99999 c 0,0 -16.9333334,-118.533324 42.333332,-118.533324 59.266668,0 42.333338,118.533324 42.333338,118.533324 z"
       id="path1" />
    <path
       style="fill:#000000;fill-opacity:1;stroke:#000000;stroke-width:2.11667"
       id="path2"
       d="m 42.307716,44.690223 c 0.611029,-1.2968 1.483233,-2.421576 2.457704,-3.461795 0.150164,-0.12028 0.281159,-0.269505 0.450495,-0.360842 0.651706,-0.351523 1.522323,0.07812 2.083906,0.400391 -5.632037,-3.333572 -1.461783,-0.65152 -0.139552,0.141288 1.19212,0.101695 2.913084,2.386261 4.618832,2.252871 0.677436,-0.05297 1.260567,-0.436485 1.835303,-0.757928 1.435232,-1.021693 2.843678,-2.092002 4.198612,-3.218889 0.472011,-0.274185 0.870839,-0.865346 1.428557,-1.003591 0.121814,-0.03019 0.256111,-0.01635 0.375915,0.02103 0.140504,0.04384 0.514426,0.286297 0.384913,0.216368 -0.92995,-0.50211 -1.857513,-1.008626 -2.786272,-1.512938 0.88001,0.55304 1.345899,2.032611 2.195664,2.546239 1.205478,0.728636 2.450859,1.389123 3.676287,2.083684 1.348825,-0.06232 2.447441,-0.909177 3.532256,-1.627003 0.561338,-0.386847 1.119032,-0.77883 1.674696,-1.17376 0,0 -3.132661,-1.98641 -3.132661,-1.98641 v 0 c -0.534297,0.403217 -1.07411,0.798513 -1.620107,1.185821 -0.782955,0.507698 -1.937703,1.317384 -2.912552,1.333243 -0.164666,0.0027 -0.325768,-0.04861 -0.488651,-0.07292 0.912635,0.55118 1.82527,1.10236 2.737906,1.65354 -0.158007,-0.11295 -0.330203,-0.208314 -0.474023,-0.338854 -0.696841,-0.632505 -1.056071,-1.546902 -1.712767,-2.215645 -1.225118,-0.733049 -2.423014,-1.513639 -3.675356,-2.199145 -0.291266,-0.159435 -0.681598,-0.101338 -0.961797,0.03635 -0.51875,0.254921 -0.856935,0.811255 -1.323478,1.132702 -1.302903,1.149059 -2.683459,2.234729 -4.170497,3.134307 -0.524116,0.240753 -0.747117,0.388811 -1.310029,0.48201 -1.406176,0.232818 -4.094326,-1.889241 1.414439,1.382091 -0.503505,-0.305313 -1.025374,-0.580514 -1.52726,-0.887783 -1.615662,-0.989158 -2.784893,-2.472862 -4.786815,-2.963772 -1.082463,-0.463238 -1.887458,-0.532803 -2.738398,0.410768 -0.903951,1.067689 -1.663946,2.254628 -2.624214,3.271456 z" />
    <path
       style="fill:#000000;fill-opacity:1;stroke:#000000;stroke-width:2.11667"
       id="path3"
       d="m 80.96465,44.067298 c 0.328142,-1.134216 1.154949,-2.031145 1.96546,-2.850777 0.457359,-0.348776 0.975548,-0.961506 1.615998,-0.950515 0.285668,0.0049 0.682517,0.187552 0.9335,0.284731 1.767182,1.00552 -1.451345,-0.831204 -2.0737,-1.097955 -0.240909,-0.103259 0.389045,0.351351 0.581845,0.528913 0.244358,0.225047 0.774705,0.754856 1.080407,0.931098 1.238134,0.713806 2.50789,1.371306 3.761835,2.056958 1.372161,0.204854 2.531658,-0.577194 3.600723,-1.335593 0.98593,-0.727892 1.522891,-1.201666 2.646526,-0.484711 -4.622993,-2.795881 -3.109102,-1.993308 -1.88795,-0.597302 0,0 3.465949,1.466559 3.465949,1.466559 v 0 c -1.463072,-1.735807 -1.596451,-1.83101 -4.565232,-3.253227 -1.222708,-0.433324 -1.80939,0.194641 -2.774704,0.880388 -1.031356,0.687633 -2.11374,1.399931 -3.402769,1.032245 0.860872,0.530865 1.714926,1.072957 2.582619,1.592601 0.199194,0.119293 -0.394467,-0.246832 -0.576384,-0.39111 -0.198908,-0.157757 -0.379407,-0.337576 -0.563203,-0.512709 -0.188206,-0.179332 -0.336327,-0.406048 -0.552521,-0.550413 -3.030873,-2.023917 -2.52022,-1.764493 -4.291065,-2.562566 -0.182031,-0.04501 -0.359921,-0.112646 -0.546095,-0.13502 -0.94896,-0.114046 -1.578779,0.552988 -2.186882,1.17732 -0.825532,0.900591 -1.598678,1.853022 -2.279748,2.868075 z" />
    <path
       style="fill:#000000;fill-opacity:1;stroke:#000000;stroke-width:2.11667"
       id="path4"
       d="m 48.091219,56.354656 c 0.636431,-0.903184 1.476068,-1.604838 2.3758,-2.230675 0.366077,-0.247973 0.766831,-0.437055 1.209206,-0.242694 0.138195,0.06072 0.508469,0.323675 0.3736,0.255889 -2.713173,-1.363644 -3.408886,-2.112844 -1.986651,-0.792716 1.837429,1.785676 4.063966,3.368612 6.569499,4.010747 0.199178,-0.01648 0.407847,0.01344 0.59754,-0.04949 0.52532,-0.174297 0.96711,-0.611439 1.360768,-0.966404 0.648832,-0.585057 1.277675,-1.183804 1.94396,-1.749769 0.794155,-0.690758 1.553498,-1.002551 2.581182,-1.114943 0.128852,0.02334 0.259641,0.03775 0.386556,0.07 0.298696,0.07591 1.1195,0.511746 0.852618,0.35761 C 59.2026,50.926326 61.59279,52.318712 62.70658,53.05968 c 0,0 3.450807,1.350973 3.450807,1.350973 v 0 c -1.568813,-1.056949 -2.981426,-1.86559 -4.753084,-2.846652 -0.248581,-0.137652 -0.677973,-0.255235 -0.964636,-0.284834 -0.14637,-0.01511 -0.294299,-2.65e-4 -0.441447,-5.29e-4 -1.105537,0.205676 -1.765517,0.580654 -2.565389,1.389933 -0.798737,0.780118 -2.09636,2.281274 -3.229703,2.441045 -0.17844,0.02516 -0.359336,-0.02777 -0.539004,-0.04166 -1.258302,-0.408831 -3.202924,-1.596496 1.575017,1.129435 0.211418,0.120618 -0.417097,-0.252166 -0.613894,-0.395406 -0.52564,-0.382588 -0.752379,-0.629891 -1.225915,-1.081498 -1.548918,-1.575189 -0.684472,-0.786702 -4.309036,-2.941733 -0.618484,-0.367728 -1.285645,-0.04841 -1.783842,0.344109 -0.881869,0.697889 -1.700707,1.464469 -2.570411,2.175754 z" />
    <path
       style="fill:#000000;fill-opacity:1;stroke:#000000;stroke-width:2.11667"
       id="path5"
       d="m 79.613862,57.445499 c 0.480566,-1.297845 1.383898,-2.39549 2.257727,-3.449198 0.757475,-0.939054 1.424305,-1.551472 2.600798,-1.845588 1.16907,-0.233929 1.745742,-0.07803 2.791624,0.500901 -0.83734,-0.45122 -1.640107,-0.973518 -2.51202,-1.353661 -0.236805,-0.103243 0.390933,0.337905 0.581721,0.512075 0.40341,0.368271 0.518864,0.557075 1.000109,0.816697 3.786262,2.042612 2.36279,2.047886 4.313264,1.905013 0.85317,-0.360389 1.646227,-0.84881 2.442583,-1.318397 0,0 -3.113728,-2.011104 -3.113728,-2.011104 v 0 c -0.740238,0.468935 -1.490972,0.968833 -2.370037,1.123479 -1.573331,-0.104968 -0.493892,-0.111217 2.191219,1.635438 0.178535,0.116139 -0.395515,-0.166902 -0.569439,-0.289838 -0.193442,-0.136732 -0.349629,-0.319741 -0.522338,-0.481873 -1.703115,-1.59881 0.07214,-0.149441 -4.315857,-2.838833 -1.040283,-0.477803 -1.944571,-0.703675 -3.059694,-0.344538 -1.213107,0.431038 -1.804681,1.109459 -2.567626,2.130142 -0.874241,1.114893 -1.771343,2.216346 -2.56559,3.390355 z" />
    <g
       id="g5"
       transform="matrix(0.7437011,0,0,0.76923252,10.730173,35.10372)"
       style="fill:#77767b">
      <circle
         style="fill:#77767b;stroke:#000000;stroke-width:2.11667;stroke-dasharray:none"
         id="path2-9"
         cx="76.934784"
         cy="75.438316"
         r="33.866665" />
      <path
         style="fill:#77767b;fill-opacity:1;stroke:#000000;stroke-width:2.11667;stroke-dasharray:none"
         d="m 53.651461,83.904978 c -8.46667,0 -12.7,-4.23332 -12.7,-8.46666 0,-4.23333 4.23333,-8.46667 12.7,-8.46667"
         id="path13"
         sodipodi:nodetypes="csc" />
      <path
         style="fill:#77767b;fill-opacity:1;stroke:#000000;stroke-width:2.11667;stroke-dasharray:none"
         d="m 51.534791,80.411988 c -4.23333,0 -4.23333,-2.00691 -4.23333,-3.49029 0,-1.48339 4.23333,-1.48339 4.23333,-1.48339 0,0 0,-4.23333 -4.23333,-4.23333"
         id="path14" />
      <path
         style="fill:#77767b;fill-opacity:1;stroke:#000000;stroke-width:2.11667"
         d="m 68.468121,66.971648 16.93334,16.93333"
         id="path10" />
      <path
         style="fill:#77767b;fill-opacity:1;stroke:#000000;stroke-width:2.11667"
         d="m 86.149811,66.847628 -17.68169,17.05735"
         id="path11" />
      <path
         style="fill:#77767b;fill-opacity:1;stroke:#000000;stroke-width:2.11667"
         d="m 88.886441,67.095668 16.933329,16.93333"
         id="path10-5" />
      <path
         style="fill:#77767b;fill-opacity:1;stroke:#000000;stroke-width:2.11667"
         d="M 106.56812,66.971648 88.886441,84.028998"
         id="path11-3" />
      <path
         style="fill:#77767b;fill-opacity:1;stroke:#000000;stroke-width:2.11667"
         d="M 76.934791,101.37208 55.768121,92.371648"
         id="path12" />
      <path
         style="fill:#77767b;fill-opacity:1;stroke:#000000;stroke-width:2.11667"
         d="m 60.001461,94.931738 c 0,0 -12.7,10.416032 -4.23334,12.394632 8.46667,1.97861 16.93334,-6.48806 16.93334,-6.48806 z"
         id="path15" />
      <path
         style="fill:#77767b;fill-opacity:1;stroke:#000000;stroke-width:2.11667"
         d="m 64.234791,96.604978 -4.23333,4.233332"
         id="path17"
         sodipodi:nodetypes="cc" />
    </g>
  </g>
</svg>
