<?xml version="1.0" encoding="UTF-8" standalone="no"?>
<!-- Created with Inkscape (http://www.inkscape.org/) -->

<svg
   width="512"
   height="512"
   viewBox="0 0 135.46666 135.46667"
   version="1.1"
   id="svg1"
   inkscape:version="1.3 (0e150ed6c4, 2023-07-21)"
   sodipodi:docname="House.svg"
   xmlns:inkscape="http://www.inkscape.org/namespaces/inkscape"
   xmlns:sodipodi="http://sodipodi.sourceforge.net/DTD/sodipodi-0.dtd"
   xmlns="http://www.w3.org/2000/svg"
   xmlns:svg="http://www.w3.org/2000/svg">
  <sodipodi:namedview
     id="namedview1"
     pagecolor="#ffffff"
     bordercolor="#000000"
     borderopacity="0.25"
     inkscape:showpageshadow="2"
     inkscape:pageopacity="0.0"
     inkscape:pagecheckerboard="0"
     inkscape:deskcolor="#d1d1d1"
     inkscape:document-units="mm"
     inkscape:zoom="0.64504647"
     inkscape:cx="123.24694"
     inkscape:cy="274.39884"
     inkscape:window-width="1366"
     inkscape:window-height="707"
     inkscape:window-x="0"
     inkscape:window-y="30"
     inkscape:window-maximized="1"
     inkscape:current-layer="layer1"
     showgrid="true"
     showguides="true">
    <inkscape:grid
       id="grid1"
       units="px"
       originx="0"
       originy="0"
       spacingx="4.2333333"
       spacingy="4.2333333"
       empcolor="#0099e5"
       empopacity="0.30196078"
       color="#0099e5"
       opacity="0.14901961"
       empspacing="5"
       dotted="false"
       gridanglex="30"
       gridanglez="30"
       visible="true"
       snapvisiblegridlinesonly="false" />
  </sodipodi:namedview>
  <defs
     id="defs1" />
  <g
     inkscape:label="Слой 1"
     inkscape:groupmode="layer"
     id="layer1">
    <rect
       style="fill:#9a9996;fill-opacity:1;stroke:#000000;stroke-width:1.94493"
       id="rect17"
       width="8.6387405"
       height="24.513573"
       x="97.280632"
       y="26.372461" />
    <path
       style="fill:#865e3c;fill-opacity:1;stroke:#000000;stroke-width:2.117"
       d="M 16.933333,126.99999 H 118.53333 V 67.733328 l -50.799997,-50.799996 -50.8,50.799996 z"
       id="path4"
       sodipodi:nodetypes="cccccc" />
    <path
       style="fill:#63452c;fill-opacity:1;stroke:#000000;stroke-width:2.117"
       d="M 67.733332,16.933332 127,76.199994 V 67.733327 L 67.733332,8.466666 8.4666666,67.733327 v 8.466667 z"
       id="path5" />
    <circle
       style="fill:#99c1f1;fill-opacity:1;stroke:#000000;stroke-width:2.117"
       id="path6"
       cx="67.73333"
       cy="50.799995"
       r="8.4666662" />
    <rect
       style="fill:#ffffff;fill-opacity:1;stroke:#000000;stroke-width:2.117"
       id="rect11"
       width="42.333332"
       height="33.866665"
       x="67.73333"
       y="80.433327" />
    <rect
       style="fill:#99c1f1;fill-opacity:1;stroke:#000000;stroke-width:2.117"
       id="rect12"
       width="16.933332"
       height="25.399998"
       x="71.966667"
       y="84.666656" />
    <rect
       style="fill:#99c1f1;fill-opacity:1;stroke:#000000;stroke-width:2.117"
       id="rect13"
       width="12.7"
       height="12.699999"
       x="93.133331"
       y="84.666656" />
    <rect
       style="fill:#99c1f1;fill-opacity:1;stroke:#000000;stroke-width:2.117"
       id="rect14"
       width="12.7"
       height="8.4666662"
       x="93.133331"
       y="101.59999" />
    <rect
       style="fill:#63452c;fill-opacity:1;stroke:#000000;stroke-width:2.117"
       id="rect15"
       width="33.866665"
       height="46.566662"
       x="25.4"
       y="80.433327" />
    <rect
       style="fill:#63452c;fill-opacity:1;stroke:#000000;stroke-width:2.117"
       id="rect16"
       width="4.2333331"
       height="8.4666662"
       x="50.799999"
       y="101.59999" />
    <path
       style="fill:#000000;fill-opacity:1;stroke:none;stroke-width:2.117"
       id="path17"
       d="m 103.72938,21.734996 c -0.18978,-0.195835 -0.40163,-0.372472 -0.56935,-0.587506 -0.79737,-1.022314 -1.54601,-2.53822 -0.84531,-3.815784 0.11638,-0.212188 0.32665,-0.357174 0.48997,-0.53576 0.18862,-0.105329 0.35886,-0.254128 0.56584,-0.315986 0.17047,-0.05094 0.36204,-0.05971 0.5336,-0.01258 0.12629,0.03469 0.4239,0.305087 0.30815,0.243797 -1.04381,-0.579576 -2.08762,-1.159152 -3.13143,-1.738727 -0.0234,0.01779 -0.0409,0.05039 -0.0701,0.05338 -0.14566,0.01492 -0.29284,-7.94e-4 -0.43926,-0.0012 0.26051,0.295676 -1.819175,-0.842782 -1.35167,-0.661115 0.79328,0.308262 1.4755,0.995337 2.32437,1.056502 0.33881,0.02441 -0.34502,-0.59358 -0.43721,-0.920523 -0.25406,-0.901024 -0.0608,-1.01588 0.25077,-1.845643 0.26312,-0.265927 0.49811,-0.563 0.78936,-0.79778 0.85943,-0.69279 1.91956,-1.194555 3.04424,-0.925824 0.28062,0.06705 1.0395,0.499696 0.78753,0.359147 -0.83613,-0.466395 -1.69449,-0.891765 -2.54173,-1.3376478 0.0261,0.097392 0.12023,0.2004768 0.0783,0.2921768 -0.0482,0.105391 -0.1896,0.136109 -0.29556,0.183036 -0.18491,0.0819 -0.37078,0.184675 -0.57232,0.201344 -0.23176,0.01917 -0.88263,-0.228446 -0.69089,-0.09687 3.07468,2.109783 2.70562,1.774892 1.93798,0.58403 0.007,-0.282535 -0.0422,-0.572083 0.0208,-0.847604 0.42953,-1.8802191 2.49958,-2.6359395 4.06758,-3.2701709 0,0 -2.75821,-1.8426207 -2.75821,-1.8426207 v 0 c -1.75936,0.7495346 -3.75219,1.4820876 -4.38672,3.508181 -0.10148,0.3240312 -0.10275,0.6712823 -0.15412,1.0069234 0.1187,0.2773072 0.11109,0.6559822 0.35611,0.8319212 1.18039,0.84758 2.47675,1.533547 3.79368,2.147857 0.51312,0.239352 1.83037,-0.22588 2.05227,-0.769229 0.0742,-0.181703 -0.0608,-0.3878 -0.0913,-0.5817 -0.10917,-0.06617 -3.0367,-2.2863588 -4.38623,-2.388057 -1.61873,-0.1219838 -2.948109,1.0381837 -4.026863,2.081173 -0.144259,0.343227 -0.367755,0.663092 -0.432776,1.029681 -0.06119,0.344997 -0.0049,0.705668 0.06405,1.049193 0.419201,2.087564 1.731492,2.044329 3.951259,3.505163 0.23952,0.157627 0.50049,0.286344 0.771,0.381433 0.26646,0.09367 0.5519,0.120404 0.82785,0.180605 0.24548,-0.05257 0.51842,-0.03325 0.73644,-0.157718 0.15298,-0.08734 0.43504,-0.320345 0.30086,-0.434476 -0.68026,-0.578594 -2.7554,-2.845565 -4.26989,-2.013563 -0.21215,0.11655 -0.3842,0.29455 -0.576301,0.441825 -0.162489,0.231957 -0.371795,0.437362 -0.487468,0.695871 -0.677376,1.51383 0.09807,3.336388 0.950779,4.609753 z" />
  </g>
</svg>
