<?xml version="1.0" encoding="UTF-8" standalone="no"?>
<!-- Created with Inkscape (http://www.inkscape.org/) -->

<svg
   width="512"
   height="512"
   viewBox="0 0 135.46666 135.46667"
   version="1.1"
   id="svg1"
   inkscape:version="1.3 (0e150ed6c4, 2023-07-21)"
   sodipodi:docname="Table with the clock.svg"
   xmlns:inkscape="http://www.inkscape.org/namespaces/inkscape"
   xmlns:sodipodi="http://sodipodi.sourceforge.net/DTD/sodipodi-0.dtd"
   xmlns="http://www.w3.org/2000/svg"
   xmlns:svg="http://www.w3.org/2000/svg">
  <sodipodi:namedview
     id="namedview1"
     pagecolor="#ffffff"
     bordercolor="#000000"
     borderopacity="0.25"
     inkscape:showpageshadow="2"
     inkscape:pageopacity="0.0"
     inkscape:pagecheckerboard="0"
     inkscape:deskcolor="#d1d1d1"
     inkscape:document-units="mm"
     inkscape:zoom="0.45611673"
     inkscape:cx="20.828002"
     inkscape:cy="339.82529"
     inkscape:window-width="1366"
     inkscape:window-height="707"
     inkscape:window-x="0"
     inkscape:window-y="30"
     inkscape:window-maximized="1"
     inkscape:current-layer="layer1"
     showgrid="true"
     showguides="true">
    <inkscape:grid
       id="grid1"
       units="px"
       originx="0"
       originy="0"
       spacingx="8.4666666"
       spacingy="8.4666666"
       empcolor="#0099e5"
       empopacity="0.30196078"
       color="#0099e5"
       opacity="0.14901961"
       empspacing="5"
       dotted="false"
       gridanglex="30"
       gridanglez="30"
       visible="true"
       snapvisiblegridlinesonly="false" />
  </sodipodi:namedview>
  <defs
     id="defs1" />
  <g
     inkscape:label="Слой 1"
     inkscape:groupmode="layer"
     id="layer1">
    <rect
       style="fill:#865e3c;stroke:#000000;stroke-width:2.117"
       id="rect19"
       width="135.46666"
       height="101.59999"
       x="0"
       y="0" />
    <rect
       style="fill:#865e3c;stroke:#000000;stroke-width:2.117"
       id="rect20"
       width="135.46666"
       height="33.866665"
       x="0"
       y="101.59999" />
    <rect
       style="fill:#865e3c;stroke:#000000;stroke-width:2.117"
       id="rect21"
       width="118.53333"
       height="16.933332"
       x="8.4666662"
       y="110.06666" />
    <circle
       style="fill:#865e3c;stroke:#000000;stroke-width:2.117"
       id="path21"
       cx="67.733337"
       cy="118.53331"
       r="4.2333331" />
    <g
       id="g27"
       transform="matrix(1.0157013,0,0,0.50926929,-56.726486,16.2883)"
       style="fill:#63452c;stroke:#63452c">
      <path
         style="fill:#63452c;stroke:#63452c;stroke-width:2.117"
         d="m 97.135849,118.56709 25.400001,-25.399993 25.4,25.399993"
         id="path27-5" />
      <ellipse
         style="fill:#63452c;stroke:#63452c;stroke-width:2.117"
         id="path22-3"
         cx="122.53584"
         cy="93.167099"
         rx="25.4"
         ry="25.399998" />
      <circle
         style="fill:#63452c;stroke:#63452c;stroke-width:2.117"
         id="path23-5"
         cx="122.53584"
         cy="93.167099"
         r="16.933332" />
      <path
         style="fill:#63452c;stroke:#63452c;stroke-width:2.117"
         d="M 97.135849,84.700431 114.06918,67.767099 c 0,0 -8.46667,-8.466666 -16.933331,0 -8.466667,8.466666 0,16.933332 0,16.933332 z"
         id="path24-6" />
      <path
         style="fill:#63452c;stroke:#63452c;stroke-width:2.117"
         d="M 147.93585,84.700431 131.00251,67.767099 c 0,0 8.46667,-8.466666 16.93334,0 8.46666,8.466666 0,16.933332 0,16.933332 z"
         id="path25-2" />
      <path
         style="fill:#63452c;stroke:#63452c;stroke-width:2.117"
         d="m 122.53585,84.700431 v 8.466666 l 8.46666,8.466663"
         id="path26-9" />
    </g>
    <path
       style="fill:none;stroke:#000000;stroke-width:2.117"
       d="m 42.333336,76.199994 25.399999,-25.399997 25.4,25.399997"
       id="path27" />
    <ellipse
       style="fill:#ffffff;stroke:#000000;stroke-width:2.117"
       id="path22"
       cx="67.73333"
       cy="50.799995"
       rx="25.4"
       ry="25.399998" />
    <circle
       style="fill:#99c1f1;stroke:#000000;stroke-width:2.117"
       id="path23"
       cx="67.73333"
       cy="50.799995"
       r="16.933332" />
    <path
       style="fill:#ffffff;stroke:#000000;stroke-width:2.117"
       d="M 42.333336,42.333331 59.266669,25.399999 c 0,0 -8.466667,-8.466666 -16.933333,0 -8.466667,8.466666 0,16.933332 0,16.933332 z"
       id="path24" />
    <path
       style="fill:#ffffff;stroke:#000000;stroke-width:2.117"
       d="M 93.133335,42.333331 76.200002,25.399999 c 0,0 8.466667,-8.466666 16.933333,0 8.466665,8.466666 0,16.933332 0,16.933332 z"
       id="path25" />
    <path
       style="fill:none;stroke:#000000;stroke-width:2.117"
       d="m 67.733335,42.333331 v 8.466666 l 8.466667,8.466667"
       id="path26" />
  </g>
</svg>
