<?xml version="1.0" encoding="UTF-8" standalone="no"?>
<!-- Created with Inkscape (http://www.inkscape.org/) -->

<svg
   width="1024"
   height="512"
   viewBox="0 0 270.93332 135.46667"
   version="1.1"
   id="svg1"
   inkscape:version="1.3 (0e150ed6c4, 2023-07-21)"
   sodipodi:docname="Table with the paper.svg"
   xmlns:inkscape="http://www.inkscape.org/namespaces/inkscape"
   xmlns:sodipodi="http://sodipodi.sourceforge.net/DTD/sodipodi-0.dtd"
   xmlns="http://www.w3.org/2000/svg"
   xmlns:svg="http://www.w3.org/2000/svg">
  <sodipodi:namedview
     id="namedview1"
     pagecolor="#ffffff"
     bordercolor="#000000"
     borderopacity="0.25"
     inkscape:showpageshadow="2"
     inkscape:pageopacity="0.0"
     inkscape:pagecheckerboard="0"
     inkscape:deskcolor="#d1d1d1"
     inkscape:document-units="mm"
     inkscape:zoom="0.64504647"
     inkscape:cx="219.36404"
     inkscape:cy="207.73697"
     inkscape:window-width="1366"
     inkscape:window-height="707"
     inkscape:window-x="0"
     inkscape:window-y="30"
     inkscape:window-maximized="1"
     inkscape:current-layer="layer1"
     showgrid="true"
     showguides="true">
    <inkscape:grid
       id="grid1"
       units="px"
       originx="0"
       originy="0"
       spacingx="8.4666666"
       spacingy="8.4666666"
       empcolor="#0099e5"
       empopacity="0.30196078"
       color="#0099e5"
       opacity="0.14901961"
       empspacing="5"
       dotted="false"
       gridanglex="30"
       gridanglez="30"
       visible="true"
       snapvisiblegridlinesonly="false" />
  </sodipodi:namedview>
  <defs
     id="defs1" />
  <g
     inkscape:label="Слой 1"
     inkscape:groupmode="layer"
     id="layer1">
    <rect
       style="fill:#865e3c;stroke:#000000;stroke-width:2.117"
       id="rect33"
       width="270.93332"
       height="101.59999"
       x="0"
       y="0" />
    <rect
       style="fill:#865e3c;stroke:#000000;stroke-width:2.117"
       id="rect34"
       width="270.93332"
       height="16.933332"
       x="0"
       y="101.59999" />
    <rect
       style="fill:#865e3c;stroke:#000000;stroke-width:2.117"
       id="rect35"
       width="16.933332"
       height="16.933332"
       x="254"
       y="118.53333" />
    <rect
       style="fill:#865e3c;stroke:#000000;stroke-width:2.117"
       id="rect36"
       width="16.933332"
       height="16.933332"
       x="0"
       y="118.53333" />
    <path
       style="fill:#ffffff;stroke:#000000;stroke-width:2.117"
       d="M 67.733332,16.933332 127,8.466666 143.93333,84.66666 84.666666,93.133324 Z"
       id="path36" />
    <path
       style="fill:#1a5fb4;stroke:#000000;stroke-width:2.117"
       d="m 177.8,50.799997 c 0,0 -16.93334,8.466664 -16.93334,16.93333 0,8.466667 8.46667,8.466667 25.4,8.466667 16.93334,0 25.4,0 25.4,-8.466667 0,-8.466666 -16.93333,-16.93333 -16.93333,-16.93333 z"
       id="path37" />
    <ellipse
       style="fill:#1a5fb4;stroke:#000000;stroke-width:1.79902"
       id="path38"
       cx="186.75441"
       cy="50.799995"
       rx="8.0549011"
       ry="7.5671554" />
    <path
       style="fill:#ffffff;stroke:#000000;stroke-width:2.117"
       d="m 186.26666,50.799997 c 0,0 8.46667,-42.333331 16.93334,-42.333331 8.46666,0 -0.48775,32.967152 -8.46667,33.866664 -7.97892,0.899509 -8.46667,8.466667 -8.46667,8.466667 z"
       id="path39" />
    <path
       style="fill:#000000;stroke:none;stroke-width:2.117"
       id="path40"
       d="m 81.446173,30.107741 c 0.641906,-0.366717 1.268071,-0.790657 1.770875,-1.340027 0.196517,-0.214714 0.625385,-0.826582 0.804026,-1.075774 0.08401,-0.0929 0.428067,-0.536885 0.630129,-0.561833 0.03012,-0.0037 0.8137,0.266203 0.825217,0.270227 0.622636,0.217607 0.624293,0.223507 1.259946,0.465746 1.044482,0.395743 2.17256,0.762895 3.304979,0.589222 0.206291,-0.03164 0.405352,-0.09957 0.608029,-0.149357 0.596315,-0.316569 1.069583,-0.763479 1.516226,-1.259623 0.08654,-0.09613 0.53699,-0.648929 0.703749,-0.735386 0.08565,-0.04441 0.192609,-0.01157 0.288912,-0.01735 1.216615,0.813803 -0.181729,-0.131902 -2.600446,-1.414358 -0.162177,-0.08599 0.304286,0.205471 0.453704,0.312098 0.487905,0.348181 0.965917,0.698423 1.470451,1.022735 1.198769,0.681924 2.397535,1.363848 3.596302,2.045774 0,0 -2.910626,-2.331448 -2.910626,-2.331448 v 0 c 0.915747,0.53802 1.831491,1.07604 2.747237,1.614059 -0.423605,-0.248568 -0.597183,-0.338023 -1.002186,-0.627549 -0.300587,-0.214881 -0.552931,-0.497494 -0.870754,-0.685946 -1.203555,-0.713644 -2.40271,-1.438723 -3.648377,-2.076018 -0.117228,-0.05997 -0.263313,0.0049 -0.394972,0.0074 -0.110776,0.06855 -0.236239,0.117697 -0.332327,0.205662 -0.245216,0.224485 -0.396344,0.534637 -0.613733,0.786165 -0.396828,0.459144 -0.843135,0.843437 -1.414867,1.067118 -0.181573,0.03778 -0.360273,0.09394 -0.544717,0.113345 -1.102542,0.115995 -2.171147,-0.327523 -3.18775,-0.68439 -0.624155,-0.234871 -1.802551,-0.834041 -2.468859,-0.521682 -0.142737,0.06691 -0.508135,0.64121 -0.561197,0.718443 -0.251034,0.392073 -0.405429,0.674143 -0.733938,1.014628 -0.532448,0.551862 -1.211342,0.887436 -1.932379,1.11806 z" />
    <path
       style="fill:#000000;stroke:none;stroke-width:2.117"
       id="path41"
       d="m 104.38595,27.249265 c -0.0637,-0.703125 0.0283,-1.409426 0.1956,-2.091989 0.10615,-0.221443 0.28834,-1.127407 0.57316,-1.174772 0.14511,-0.02413 0.40873,0.261287 0.45515,0.301771 -0.93829,-0.527236 -1.86621,-1.073372 -2.81488,-1.581708 -0.14567,-0.07806 0.26799,0.193511 0.40275,0.289185 0.1185,0.08413 0.22788,0.183588 0.35703,0.250205 1.21021,0.62422 2.38197,1.342674 3.65717,1.820294 0.11571,0.04334 0.86267,-0.613687 0.90027,-0.644924 0.14586,-0.150275 0.2917,-0.30055 0.43756,-0.450824 0,0 -3.11071,-1.916158 -3.11071,-1.916158 v 0 c -0.14805,0.130331 -0.2961,0.260663 -0.44415,0.390994 -0.14518,0.09255 -0.27938,0.205142 -0.43553,0.277651 -0.12284,0.05704 -0.49996,0.02476 -0.39208,0.106643 0.89811,0.681658 1.9178,1.186206 2.87676,1.77921 0.12984,0.08029 -0.26376,-0.154337 -0.38939,-0.241066 -0.13497,-0.09318 -0.25128,-0.21297 -0.3915,-0.298037 -1.19357,-0.724082 -2.40486,-1.418553 -3.60729,-2.12783 -0.15398,-0.03378 -0.30459,-0.110963 -0.46193,-0.101357 -0.66098,0.04035 -0.7176,1.10544 -0.90358,1.542521 -0.16966,0.687495 -0.32067,1.382017 -0.40895,2.084536 z" />
    <path
       style="fill:#000000;stroke:none;stroke-width:2.117"
       id="path42"
       d="m 116.9025,24.117566 c 0.0279,-0.229272 0.13239,-0.932955 0.37765,-1.031643 0.0872,-0.03509 0.1792,0.062 0.25891,0.111857 0.11505,0.07196 0.44042,0.314663 0.32074,0.250703 -0.93701,-0.500772 -1.8516,-1.042417 -2.77739,-1.563626 1.48719,1.091359 2.94203,1.922784 4.6657,2.795922 0.1315,0.06661 0.89637,0.07913 1.04525,-0.002 0.22538,-0.12274 0.37661,-0.348731 0.56492,-0.523097 0.84203,-0.881725 1.53803,-1.88838 2.31658,-2.824731 0.16798,-0.202033 0.32851,-0.412456 0.51985,-0.592524 0.15095,-0.142049 0.33404,-0.245487 0.50106,-0.36823 -0.20222,-0.402844 1.10723,0.342121 0.8525,0.199681 -3.04021,-1.699982 -3.6006,-2.278694 -2.49931,-1.242961 0,0 3.43988,1.448874 3.43988,1.448874 v 0 c -1.09689,-1.463128 -0.42259,-0.671116 -3.90279,-2.480261 -0.14881,-0.07736 -0.33498,-0.07519 -0.50071,-0.04944 -0.17086,0.02655 -0.31868,0.134337 -0.47802,0.201505 -0.15353,0.155631 -0.31928,0.300096 -0.46061,0.466895 -0.0739,0.08721 -0.9645,1.306263 -0.99902,1.350858 -0.54852,0.708599 -1.14379,1.380878 -1.83448,1.955303 -0.48664,0.245969 -0.48328,0.348447 -0.98354,0.282718 -0.15604,-0.0205 -0.58791,-0.205525 -0.45719,-0.117878 4.84157,3.246282 2.70249,1.62471 1.66939,0.852 -1.20478,-0.706282 -2.38854,-1.449725 -3.61436,-2.118846 -0.31981,-0.174571 -0.6268,-0.181497 -0.90829,0.065 -0.29354,0.257044 -0.30687,0.750565 -0.58248,1.026094 z" />
    <path
       style="fill:#000000;stroke:none;stroke-width:2.117"
       id="path43"
       d="m 80.624248,38.343263 c 0.209682,-0.647121 0.646938,-1.183532 1.157986,-1.622708 0.140956,-0.121129 0.266578,-0.288555 0.446963,-0.333309 0.1929,-0.04786 0.394279,0.05046 0.59142,0.07568 1.320179,0.438129 2.656721,0.829865 4.058055,0.537041 0.878126,-0.183494 1.36933,-0.488398 2.16136,-0.879904 1.471552,-0.853064 0.383961,-0.212937 1.714199,-1.018609 0.218739,-0.132479 0.419237,-0.303051 0.658182,-0.394168 0.611209,-0.233074 1.200404,-0.003 1.76706,0.208428 0.113604,0.04739 1.006983,0.429255 1.141259,0.449273 0.929891,0.138631 1.791435,-0.41874 2.544114,-0.864862 0,0 -3.022732,-1.964648 -3.022732,-1.964648 v 0 c -0.577091,0.318045 -1.13474,0.640318 -1.816957,0.646192 -0.624163,0.0054 -1.156042,-0.305583 -1.731648,-0.495054 -0.495617,-0.118012 -0.735976,-0.231545 -1.252569,-0.132717 -0.622948,0.119173 -0.724083,0.295799 -1.226029,0.66539 -0.900893,0.663339 -0.553411,0.418055 -1.571945,1.054438 -0.76404,0.357889 -1.235657,0.642935 -2.080739,0.783543 -1.545566,0.257159 -2.800803,-0.397722 -4.265028,-0.714259 -0.258868,0.02939 -0.532916,-0.004 -0.776607,0.08816 -0.185169,0.07002 -0.312169,0.244258 -0.457618,0.378553 -0.511517,0.472278 -0.95752,1.019045 -1.423607,1.534133 z" />
    <path
       style="fill:#000000;stroke:none;stroke-width:2.117"
       id="path44"
       d="m 103.07802,35.723927 c 0.28683,-1.251839 1.20811,-2.229442 2.07706,-3.124207 0.31054,-0.25581 0.31968,-0.412785 0.7055,-0.288608 0.11655,0.03751 0.42783,0.238355 0.32017,0.180049 -0.87083,-0.471583 -3.45287,-1.939324 -2.6097,-1.419908 1.24706,0.768218 2.52236,1.492613 3.82253,2.167044 0.27102,0.140583 0.58352,0.179882 0.87528,0.269824 1.01233,0.207831 1.88918,-0.05616 2.81583,-0.441232 0.66965,-0.278275 0.93657,-0.482931 1.63316,-0.639866 0.22423,-0.05052 0.45682,-0.05139 0.68523,-0.07708 0.70872,0.01315 1.40216,0.287602 2.11454,0.226692 0.14347,-0.01228 0.28296,-0.05356 0.42444,-0.08034 0,0 -3.08317,-2.171121 -3.08317,-2.171121 v 0 c -0.8106,0.08357 -1.60212,-0.123377 -2.41414,-0.04448 -0.2214,0.05594 -0.44803,0.09419 -0.66419,0.167825 -0.81453,0.277469 -0.718,0.363675 -1.5519,0.687271 -0.8965,0.347885 -1.76122,0.480354 -2.70541,0.235416 -0.28598,-0.108276 -1.1054,-0.504468 -0.85794,-0.324824 0.71085,0.516044 3.02476,1.787829 2.26527,1.346481 -1.24998,-0.72639 -2.46203,-1.519693 -3.73681,-2.201619 -0.13531,-0.07238 -0.30727,-0.06921 -0.45839,-0.04254 -0.32327,0.05704 -0.50454,0.345721 -0.70124,0.563269 -0.8307,1.018045 -1.65583,2.053524 -2.382856,3.146655 z" />
    <path
       style="fill:#000000;stroke:none;stroke-width:2.117"
       id="path45"
       d="m 123.69363,32.609239 c 0.0246,-0.09328 0.0113,-0.206319 0.0737,-0.279823 0.0966,-0.113676 0.67811,-0.201967 0.72365,-0.208664 0.66603,-0.09796 1.34408,-0.09202 2.01417,-0.153794 0.84063,-0.08005 1.48538,-0.539573 2.12553,-1.042339 0,0 -3.18534,-1.983362 -3.18534,-1.983362 v 0 c -0.53381,0.516329 -1.09646,0.879782 -1.86406,0.936009 -0.47019,0.03014 -0.94114,0.04773 -1.41125,0.07895 -0.69624,0.04622 -1.5398,0.05748 -1.90313,0.763161 z" />
    <path
       style="fill:#000000;stroke:none;stroke-width:2.117"
       id="path46"
       d="m 83.589258,46.364217 c 0.355833,-0.31815 0.670322,-0.682521 1.19202,-0.748246 0.383402,-0.0483 0.769263,0.08127 1.155491,0.09385 0.524745,0.01709 1.05034,0.01289 1.575062,-0.0049 1.890731,-0.06423 1.447998,-0.05612 3.295255,-0.487225 1.396117,-0.307928 2.713088,-0.948471 4.13185,-1.167726 1.424384,-0.220122 1.600999,-0.04964 3.070921,-0.09329 0.589399,-0.01749 1.176557,-0.08061 1.764834,-0.120912 1.132819,-0.06117 2.237569,-0.378661 3.367499,-0.462537 0.48892,-0.03629 0.98053,-0.0016 1.47079,-0.0028 1.32536,-0.0031 2.64998,0.01339 3.97529,0.01506 0.32827,-0.03393 0.65654,-0.06787 0.98481,-0.101804 0,0 -2.82136,-1.999795 -2.82136,-1.999795 v 0 c -0.30278,0.04029 -0.60556,0.08058 -0.90834,0.120867 -1.1196,0.07814 -1.09611,0.09089 -2.30719,0.107019 -0.9035,0.01204 -2.03438,-0.034 -2.93775,0.07577 -0.50479,0.06134 -0.99663,0.204367 -1.498971,0.283274 -0.578691,0.0909 -1.161854,0.150616 -1.742781,0.225927 -0.608486,0.01757 -1.216729,0.0495 -1.825461,0.05272 -1.068747,0.0057 -2.212816,-0.112977 -3.279836,0.0518 -1.327353,0.204986 -2.635705,1.005771 -3.952044,1.27644 -1.538176,0.320437 -1.679437,0.437049 -3.258322,0.418745 -0.575882,-0.0067 -1.149107,-0.07934 -1.723536,-0.120766 -0.484883,-0.03497 -0.970539,-0.155527 -1.454393,-0.108421 -0.444715,0.04329 -1.075129,0.455229 -1.46508,0.683437 z" />
    <path
       style="fill:#000000;stroke:none;stroke-width:2.117"
       id="path47"
       d="m 119.11943,42.195935 c 0.042,-0.219237 0.14233,-0.677656 0.4379,-0.708515 0.13316,-0.01389 0.54179,0.349409 0.6801,0.390335 0.19397,0.05739 0.40326,0.03245 0.6049,0.04868 0.9322,-0.420156 1.7798,-0.990515 2.62254,-1.562439 0.30476,-0.206824 1.15056,-0.817554 1.52515,-0.966575 0.24555,-0.09768 0.5155,-0.116621 0.77324,-0.174932 0.52573,-0.13452 1.04759,0.05514 1.57086,0.03327 0.26819,-0.01119 0.53053,-0.08205 0.79579,-0.123078 0,0 -2.89948,-2.052492 -2.89948,-2.052492 v 0 c -0.25567,0.02349 -0.51046,0.06053 -0.76701,0.07047 -1.92318,0.07448 0.42287,-0.133659 -1.61016,0.07496 -0.27447,0.08845 -0.56413,0.139155 -0.82342,0.265359 -0.33942,0.165198 -1.1461,0.83543 -1.43163,1.037172 -0.81525,0.576016 -1.65677,1.097288 -2.67318,1.199845 -0.19922,-0.05455 -0.39994,-0.103896 -0.59765,-0.163655 -0.17477,-0.05282 -0.33734,-0.159845 -0.51937,-0.173956 -0.58288,-0.04518 -0.91615,0.518832 -1.15334,0.953146 z" />
    <path
       style="fill:#000000;stroke:none;stroke-width:2.117"
       id="path48"
       d="m 96.989052,53.897273 c 0.08293,-0.44041 0.174914,-1.089181 0.48623,-1.436688 0.302432,-0.337587 0.780577,-0.326469 1.171281,-0.442341 0.384078,-0.113908 0.759439,-0.255373 1.139161,-0.383058 0.431756,-0.138076 2.081836,-0.685327 2.549196,-0.758685 0.44388,-0.06967 0.89726,-0.05304 1.34646,-0.06289 1.49565,-0.03279 2.98751,0.05517 4.48079,0.122517 0.0464,0.0016 2.19621,0.08267 2.31984,0.07453 0.72953,-0.04798 1.65716,-0.296278 2.36294,-0.44875 0.39401,-0.08512 0.78939,-0.163811 1.18409,-0.245718 0,0 -2.72319,-1.892684 -2.72319,-1.892684 v 0 c -0.56458,0.122828 -1.81454,0.405511 -2.38063,0.48468 -1.12178,0.156879 -2.24886,0.104373 -3.37692,0.119536 -1.58306,6.1e-5 -1.12659,0.01016 -2.82058,-0.03552 -0.90602,-0.02445 -2.16811,-0.119576 -3.087223,0.04028 -0.874257,0.152053 -1.668187,0.640336 -2.556647,0.741997 -0.437275,0.08299 -0.875168,0.162769 -1.31182,0.24896 -0.325046,0.06416 -0.666523,0.07668 -0.973188,0.202083 -0.73606,0.300993 -0.822711,1.183296 -1.235916,1.758509 z" />
    <path
       style="fill:#000000;stroke:none;stroke-width:2.117"
       id="path49"
       d="m 124.10602,50.994767 c 0.12612,-0.366895 0.44806,-1.367687 0.7228,-1.609349 0.34759,-0.305742 1.17032,-0.09296 1.54903,-0.0084 0,0 -2.93826,-2.203913 -2.93826,-2.203913 v 0 c -0.62991,-0.05614 -1.28139,-0.118573 -1.77208,0.393099 -0.14467,0.150857 -0.20006,0.367067 -0.30274,0.549127 -0.31163,0.552593 -0.28358,0.496451 -0.59451,0.996164 z" />
    <path
       style="fill:#000000;stroke:none;stroke-width:2.117"
       id="path50"
       d="m 93.130051,64.147382 c 0.04759,-0.05227 0.110228,-0.09404 0.142754,-0.156795 0.120083,-0.23169 0.19242,-0.485987 0.310904,-0.718497 0.467659,-0.917731 1.054047,-1.860664 1.789564,-2.590075 0.191839,-0.190249 0.42055,-0.339299 0.630825,-0.50895 0.72979,-0.06234 1.317668,0.280604 1.948088,0.590703 0.22063,0.108527 0.420759,0.272399 0.659886,0.329624 0.766242,0.183361 1.008298,-0.07184 1.714378,-0.37555 0.7597,-0.282937 1.35538,-0.902877 2.10744,-1.198806 0.82644,-0.325194 1.47379,-0.257511 2.33706,-0.316841 1.34097,-0.09216 1.30684,-0.1119 2.64815,-0.300506 0,0 -2.64523,-1.8679 -2.64523,-1.8679 v 0 c -0.43991,0.05748 -0.87781,0.133242 -1.31972,0.172426 -0.64727,0.05739 -1.93131,0.05212 -2.59849,0.17475 -1.418903,0.260802 -0.992217,0.315044 -2.252845,0.927507 -0.366903,0.178258 -0.752766,0.314508 -1.129149,0.47176 -0.308737,0.07 -0.609995,0.194985 -0.926209,0.209995 -0.589775,0.028 -0.890354,-0.223806 -1.398283,-0.447794 -0.869275,-0.383334 -1.21988,-0.574416 -2.152901,-0.226632 -0.188175,0.202642 -0.388292,0.394817 -0.564526,0.607923 -0.830889,1.004739 -1.48749,2.359374 -2.604526,3.069891 z" />
    <path
       style="fill:#000000;stroke:none;stroke-width:2.117"
       id="path51"
       d="m 116.46562,60.294953 c 0.11624,-0.690277 0.3832,-1.334087 0.68621,-1.960594 0.25814,-0.53372 0.41819,-0.897726 0.83324,-1.316892 0.133,-0.134316 0.30119,-0.228471 0.45179,-0.342704 0.87748,-0.03832 1.61855,0.611399 2.49069,0.600606 0.42405,-0.0052 1.0817,-0.26362 1.47327,-0.397065 0.2238,-0.08486 0.43793,-0.201819 0.67139,-0.254582 0.72205,-0.163182 0.81351,0.0011 1.54971,-0.04691 0.97777,-0.0638 1.89557,-0.394579 2.81101,-0.712246 0.96047,-0.303254 1.93324,-0.657415 2.94856,-0.726686 0.24612,-0.0168 0.49316,0.01492 0.73974,0.02238 0,0 -2.91318,-2.100146 -2.91318,-2.100146 v 0 c -0.23245,0.02516 -0.46733,0.0336 -0.69735,0.07551 -0.98207,0.17894 -1.91515,0.561985 -2.8756,0.820597 -0.56105,0.150159 -1.37466,0.389295 -1.96646,0.471967 -1.07959,0.150817 -2.22069,-0.0879 -3.22819,0.433183 -0.47814,0.13493 -0.85848,0.290285 -1.36686,0.248306 -0.94216,-0.0778 -1.79498,-0.806831 -2.75164,-0.364405 -0.14103,0.150625 -0.29805,0.287732 -0.42309,0.451871 -0.33614,0.441235 -0.54498,0.910678 -0.80355,1.398741 -0.32953,0.621996 -0.67826,1.232779 -1.0142,1.851203 z" />
  </g>
</svg>
