<?xml version="1.0" encoding="UTF-8" standalone="no"?>
<!-- Created with Inkscape (http://www.inkscape.org/) -->

<svg
   width="512"
   height="1024"
   viewBox="0 0 135.46666 270.93334"
   version="1.1"
   id="svg1"
   inkscape:version="1.3 (0e150ed6c4, 2023-07-21)"
   sodipodi:docname="Confuse.svg"
   xmlns:inkscape="http://www.inkscape.org/namespaces/inkscape"
   xmlns:sodipodi="http://sodipodi.sourceforge.net/DTD/sodipodi-0.dtd"
   xmlns="http://www.w3.org/2000/svg"
   xmlns:svg="http://www.w3.org/2000/svg">
  <sodipodi:namedview
     id="namedview1"
     pagecolor="#ffffff"
     bordercolor="#000000"
     borderopacity="0.25"
     inkscape:showpageshadow="2"
     inkscape:pageopacity="0.0"
     inkscape:pagecheckerboard="0"
     inkscape:deskcolor="#d1d1d1"
     inkscape:document-units="mm"
     inkscape:zoom="0.64504646"
     inkscape:cx="-36.431484"
     inkscape:cy="537.94575"
     inkscape:window-width="1320"
     inkscape:window-height="704"
     inkscape:window-x="0"
     inkscape:window-y="0"
     inkscape:window-maximized="1"
     inkscape:current-layer="layer1"
     showgrid="true"
     showguides="true">
    <inkscape:grid
       id="grid1"
       units="px"
       originx="0"
       originy="0"
       spacingx="4.2333333"
       spacingy="4.2333333"
       empcolor="#0099e5"
       empopacity="0.30196078"
       color="#0099e5"
       opacity="0.14901961"
       empspacing="5"
       dotted="false"
       gridanglex="30"
       gridanglez="30"
       visible="true"
       snapvisiblegridlinesonly="false" />
    <sodipodi:guide
       position="82.035431,-0.30197857"
       orientation="0,-1"
       id="guide1"
       inkscape:locked="false" />
    <sodipodi:guide
       position="81.215077,135.46667"
       orientation="0,-1"
       id="guide2"
       inkscape:locked="false" />
  </sodipodi:namedview>
  <defs
     id="defs1" />
  <g
     inkscape:label="Слой 1"
     inkscape:groupmode="layer"
     id="layer1">
    <ellipse
       style="fill:#ffe680;fill-opacity:1;stroke:#000000;stroke-width:2.29681;stroke-dasharray:none"
       id="path15"
       cx="88.370827"
       cy="262.46664"
       rx="4.7625084"
       ry="4.7361565" />
    <path
       style="fill:#000080;fill-opacity:1;stroke:#000000;stroke-width:2.11667;stroke-dasharray:none"
       d="M 42.333333,177.79998 H 88.899999 C 84.666666,152.39999 76.2,122.76666 55.033333,110.06666 c 4.233333,21.16666 0,50.79999 -12.7,67.73332 z"
       id="path11"
       sodipodi:nodetypes="cccc" />
    <ellipse
       style="fill:#000080;fill-opacity:1;stroke:#000000;stroke-width:2.11667;stroke-dasharray:none"
       id="path10"
       cx="67.73333"
       cy="177.79997"
       rx="42.333332"
       ry="8.4666662" />
    <rect
       style="fill:#000080;stroke:#000000;stroke-width:2.11667;stroke-dasharray:none"
       id="rect4"
       width="25.4"
       height="29.633329"
       x="55.033333"
       y="237.06665" />
    <circle
       style="fill:#ffe680;stroke:#000000;stroke-width:2.11667;stroke-dasharray:none"
       id="path2"
       cx="67.73333"
       cy="207.43332"
       r="33.866665" />
    <path
       style="fill:#800000;stroke:#000000;stroke-width:2.11667;stroke-dasharray:none"
       d="m 53.974998,266.69998 h 29.63332 v -12.7 h -8.46666 v 12.7 z"
       id="path4" />
    <path
       style="fill:#800000;stroke:#000000;stroke-width:2.11667;stroke-dasharray:none"
       d="m 80.433333,266.69998 h 29.633317 v -12.7 h -8.46666 v 12.7 z"
       id="path5" />
    <path
       style="fill:#ffffff;stroke:#000000;stroke-width:2.11667;stroke-dasharray:none"
       d="M 55.033333,241.29998 42.333332,258.23331"
       id="path6"
       sodipodi:nodetypes="cc" />
    <circle
       style="fill:#ffe680;fill-opacity:1;stroke:#000000;stroke-width:2.11667;stroke-dasharray:none"
       id="path8"
       cx="42.333332"
       cy="262.46664"
       r="4.2333331" />
    <path
       style="fill:#ffe680;fill-opacity:1;stroke:#000000;stroke-width:2.11667;stroke-dasharray:none"
       d="m 44.45,215.89998 c -8.466667,0 -12.7,-4.23332 -12.7,-8.46666 0,-4.23333 4.233333,-8.46667 12.7,-8.46667"
       id="path13"
       sodipodi:nodetypes="csc" />
    <path
       style="fill:#ffe680;fill-opacity:1;stroke:#000000;stroke-width:2.11667;stroke-dasharray:none"
       d="M 42.333333,212.40699 C 38.1,212.40699 38.1,210.40008 38.1,208.9167 c 0,-1.48339 4.233333,-1.48339 4.233333,-1.48339 0,0 0,-4.23333 -4.233333,-4.23333"
       id="path14" />
    <path
       style="fill:none;stroke:#000000;stroke-width:2.11667;stroke-dasharray:none"
       d="m 59.266666,198.96665 16.933333,16.93333"
       id="path1" />
    <path
       style="fill:none;stroke:#000000;stroke-width:2.11667;stroke-dasharray:none"
       d="M 76.199999,198.96665 59.266666,215.89998"
       id="path3" />
    <path
       style="fill:none;stroke:#000000;stroke-width:2.11667;stroke-dasharray:none"
       d="m 80.433332,198.96665 16.933333,16.93333"
       id="path7" />
    <path
       style="fill:none;stroke:#000000;stroke-width:2.11667;stroke-dasharray:none"
       d="M 97.366665,198.96665 80.433332,215.89998"
       id="path9" />
    <path
       style="fill:none;stroke:#000000;stroke-width:2.11667;stroke-dasharray:none"
       d="m 80.433332,241.29998 8.466664,15.87499"
       id="path12" />
    <path
       style="fill:#000000;fill-opacity:1;stroke:#000000;stroke-width:2.11667;stroke-dasharray:none"
       id="path16"
       d="m 68.11206,103.69244 c -0.131059,0.006 -0.262779,0.0308 -0.393179,0.0166 -0.233431,-0.0255 -1.183579,-0.28806 -1.312349,-0.32796 -1.099119,-0.34058 -2.156675,-0.80099 -3.224935,-1.22508 0.661749,0.50685 -2.63438,-1.33811 -1.982499,-0.99058 0.778899,0.41525 1.515033,0.91737 2.32651,1.26467 0.301797,0.12917 -0.529119,-0.38962 -0.779108,-0.60239 -0.566171,-0.48188 -0.70041,-0.67338 -1.179314,-1.21956 -0.820163,-1.009022 -1.536536,-2.080436 -1.921007,-3.328052 -0.324175,-1.085212 -0.01336,-2.103422 0.368633,-3.122041 0.644663,-1.491798 1.704814,-2.749674 2.833828,-3.899011 1.212702,-0.969052 2.709897,-1.509652 4.148765,-2.057903 1.468519,-0.516189 3.021676,-0.661627 4.565205,-0.741344 1.446056,0.06202 2.822189,0.395454 4.114258,1.039075 -5.214475,-2.995568 -2.06383,-1.374516 -1.18245,-0.272879 0.294593,0.368213 0.327655,0.500304 0.522949,0.916369 0.22678,0.882994 0.03209,1.850824 -0.567917,2.558039 -0.153427,0.18084 -0.342713,0.327901 -0.51407,0.491853 -1.504773,1.237369 -3.129854,1.759545 -5.015918,2.075076 -1.990846,0.257154 -3.998129,0.260094 -5.996757,0.117145 -2.553182,-0.367205 -5.041257,-1.091195 -7.455876,-1.984664 -1.429848,-0.477639 -2.780229,-1.145193 -4.094121,-1.877388 -0.307604,-0.171418 -1.222628,-0.69945 -0.915691,-0.526838 0.78857,0.443468 1.573745,0.892945 2.360615,1.339416 -1.717283,-0.921141 -3.111862,-2.251982 -4.351427,-3.733646 -0.885055,-1.145159 -1.288322,-2.483456 -1.383543,-3.907767 0.122393,-1.65555 0.844335,-2.540627 2.063509,-3.590983 1.743919,-1.134388 3.68204,-1.910834 5.665893,-2.508438 2.159966,-0.578053 4.350092,-0.941612 6.575367,-1.131734 3.130055,-0.242437 6.268262,-0.309017 9.403286,-0.449394 2.354242,-0.118732 4.710256,-0.200253 7.067034,-0.244819 1.254358,0.0273 2.515793,-0.09573 3.768588,0.0095 0.826576,0.06943 1.081391,0.151566 1.877052,0.325493 0.282035,0.09169 0.571727,0.162523 0.846108,0.275071 0.270301,0.110874 1.035947,0.53997 0.78328,0.39329 -0.833363,-0.483793 -1.655447,-0.992767 -2.526342,-1.405191 -0.25315,-0.119883 0.451324,0.333375 0.659284,0.521017 0.476654,0.430093 0.591579,0.626454 0.967277,1.121241 0.436509,0.765828 0.967007,1.766109 0.704024,2.684277 -0.04263,0.148823 -0.131781,0.280173 -0.19767,0.420259 -0.09264,0.112834 -0.170045,0.24013 -0.277916,0.338508 -0.90484,0.825211 -2.648384,0.822129 -3.777189,0.87776 -3.064195,-0.04016 -6.107991,-0.473413 -9.157581,-0.749202 -1.812417,-0.208896 -3.639711,-0.170897 -5.457557,-0.270753 -0.320628,-0.01762 -2.116294,-0.188447 -2.446534,-0.219305 -2.395841,-0.192159 -4.731834,-0.601663 -7.067811,-1.15112 -2.410259,-0.410986 -4.722059,-1.194848 -7.035512,-1.962727 -1.496613,-0.476462 -2.927615,-1.126355 -4.308689,-1.868959 -0.975223,-0.466047 -1.945116,-0.937032 -2.979783,-1.257763 0,0 3.05902,2.374853 3.05902,2.374853 v 0 c 1.011846,0.354179 1.973387,0.821949 2.931509,1.300596 1.354622,0.69093 2.765806,1.262814 4.217472,1.717612 2.317168,0.755485 4.638572,1.496388 7.043023,1.927854 2.356152,0.551559 4.687004,0.904664 7.09958,1.110282 2.610377,0.226901 5.229672,0.235754 7.841856,0.44251 3.087878,0.25712 6.162519,0.71002 9.263494,0.764953 1.326864,-0.06592 3.076839,-0.03154 4.102475,-1.053134 0.12333,-0.122844 0.208394,-0.278882 0.312592,-0.418322 0.08109,-0.172781 0.185119,-0.336553 0.243261,-0.518346 0.321924,-1.006573 -0.155663,-2.09819 -0.613003,-2.977258 -0.361598,-0.510947 -0.510894,-0.764537 -0.96344,-1.219216 -1.68738,-1.695344 -3.981678,-2.807962 -6.26236,-3.467444 -1.88155,-0.336388 -3.77731,-0.340093 -5.684033,-0.261323 -2.31675,0.06097 -4.628136,0.213494 -6.941693,0.346167 -3.163353,0.154898 -6.330076,0.231164 -9.492741,0.403162 -2.2513,0.199175 -4.468294,0.570785 -6.64948,1.175983 -2.021594,0.638386 -4.004468,1.439645 -5.779616,2.615419 -0.244324,0.205639 -0.504008,0.394303 -0.732973,0.616916 -0.895368,0.870519 -1.452163,2.001424 -1.560845,3.243572 0.05714,1.499409 0.446045,2.915327 1.331748,4.150741 1.22931,1.510268 2.601931,2.917722 4.328411,3.860241 2.930586,1.711111 5.803345,3.58639 9.040297,4.678096 2.441802,0.8642 4.948679,1.569304 7.522678,1.905709 2.035995,0.126418 4.088889,0.190801 6.109888,-0.147429 0.742098,-0.140909 1.10231,-0.184409 1.822683,-0.420978 1.213366,-0.398468 2.323195,-1.058762 3.347021,-1.811608 0.201975,-0.183057 0.425683,-0.34468 0.605922,-0.549174 0.683882,-0.775923 0.866122,-1.899023 0.751996,-2.886774 -0.149611,-0.375883 -0.253722,-0.695317 -0.485592,-1.03452 -1.187339,-1.736979 -3.914494,-2.540987 -5.342408,-3.58951 -1.343642,-0.583721 -2.763716,-0.899938 -4.235384,-0.894006 -1.560605,0.105336 -3.12474,0.318985 -4.600763,0.860812 -1.481992,0.589893 -3.053919,1.097253 -4.256675,2.18422 -1.135729,1.210296 -2.195062,2.514168 -2.933139,4.010416 -0.455591,1.068314 -0.793504,2.166268 -0.518504,3.333898 0.394661,1.397937 1.048737,2.360779 1.931289,3.50847 0.469929,0.565899 0.632169,0.801325 1.191313,1.303692 1.960502,1.76144 4.414023,2.92954 6.804657,3.9971 1.681467,0.66448 3.390546,1.50467 5.225156,1.57874 z" />
  </g>
</svg>
