<?xml version="1.0" encoding="UTF-8" standalone="no"?>
<!-- Created with Inkscape (http://www.inkscape.org/) -->

<svg
   width="512"
   height="1024"
   viewBox="0 0 135.46666 270.93334"
   version="1.1"
   id="svg1"
   inkscape:version="1.3 (0e150ed6c4, 2023-07-21)"
   sodipodi:docname="Confuse frame 2.svg"
   xmlns:inkscape="http://www.inkscape.org/namespaces/inkscape"
   xmlns:sodipodi="http://sodipodi.sourceforge.net/DTD/sodipodi-0.dtd"
   xmlns="http://www.w3.org/2000/svg"
   xmlns:svg="http://www.w3.org/2000/svg">
  <sodipodi:namedview
     id="namedview1"
     pagecolor="#ffffff"
     bordercolor="#000000"
     borderopacity="0.25"
     inkscape:showpageshadow="2"
     inkscape:pageopacity="0.0"
     inkscape:pagecheckerboard="0"
     inkscape:deskcolor="#d1d1d1"
     inkscape:document-units="mm"
     inkscape:zoom="0.45611673"
     inkscape:cx="-334.34424"
     inkscape:cy="521.79626"
     inkscape:window-width="1320"
     inkscape:window-height="704"
     inkscape:window-x="0"
     inkscape:window-y="0"
     inkscape:window-maximized="1"
     inkscape:current-layer="layer1"
     showgrid="true"
     showguides="true">
    <inkscape:grid
       id="grid1"
       units="px"
       originx="0"
       originy="0"
       spacingx="4.2333333"
       spacingy="4.2333333"
       empcolor="#0099e5"
       empopacity="0.30196078"
       color="#0099e5"
       opacity="0.14901961"
       empspacing="5"
       dotted="false"
       gridanglex="30"
       gridanglez="30"
       visible="true"
       snapvisiblegridlinesonly="false" />
    <sodipodi:guide
       position="82.035431,-0.30197857"
       orientation="0,-1"
       id="guide1"
       inkscape:locked="false" />
    <sodipodi:guide
       position="81.215077,135.46667"
       orientation="0,-1"
       id="guide2"
       inkscape:locked="false" />
  </sodipodi:namedview>
  <defs
     id="defs1" />
  <g
     inkscape:label="Слой 1"
     inkscape:groupmode="layer"
     id="layer1">
    <ellipse
       style="fill:#ffe680;fill-opacity:1;stroke:#000000;stroke-width:2.29681;stroke-dasharray:none"
       id="path15"
       cx="88.370827"
       cy="262.46664"
       rx="4.7625084"
       ry="4.7361565" />
    <path
       style="fill:#000080;fill-opacity:1;stroke:#000000;stroke-width:2.11667;stroke-dasharray:none"
       d="M 42.333333,177.79998 H 88.899999 C 84.666666,152.39999 76.2,122.76666 55.033333,110.06666 c 4.233333,21.16666 0,50.79999 -12.7,67.73332 z"
       id="path11"
       sodipodi:nodetypes="cccc" />
    <ellipse
       style="fill:#000080;fill-opacity:1;stroke:#000000;stroke-width:2.11667;stroke-dasharray:none"
       id="path10"
       cx="67.73333"
       cy="177.79997"
       rx="42.333332"
       ry="8.4666662" />
    <rect
       style="fill:#000080;stroke:#000000;stroke-width:2.11667;stroke-dasharray:none"
       id="rect4"
       width="25.4"
       height="29.633329"
       x="55.033333"
       y="237.06665" />
    <circle
       style="fill:#ffe680;stroke:#000000;stroke-width:2.11667;stroke-dasharray:none"
       id="path2"
       cx="67.73333"
       cy="207.43332"
       r="33.866665" />
    <path
       style="fill:#800000;stroke:#000000;stroke-width:2.11667;stroke-dasharray:none"
       d="m 53.974998,266.69998 h 29.63332 v -12.7 h -8.46666 v 12.7 z"
       id="path4" />
    <path
       style="fill:#800000;stroke:#000000;stroke-width:2.11667;stroke-dasharray:none"
       d="m 80.433333,266.69998 h 29.633317 v -12.7 h -8.46666 v 12.7 z"
       id="path5" />
    <path
       style="fill:#ffffff;stroke:#000000;stroke-width:2.11667;stroke-dasharray:none"
       d="M 55.033333,241.29998 42.333332,258.23331"
       id="path6"
       sodipodi:nodetypes="cc" />
    <circle
       style="fill:#ffe680;fill-opacity:1;stroke:#000000;stroke-width:2.11667;stroke-dasharray:none"
       id="path8"
       cx="42.333332"
       cy="262.46664"
       r="4.2333331" />
    <path
       style="fill:#ffe680;fill-opacity:1;stroke:#000000;stroke-width:2.11667;stroke-dasharray:none"
       d="m 44.45,215.89998 c -8.466667,0 -12.7,-4.23332 -12.7,-8.46666 0,-4.23333 4.233333,-8.46667 12.7,-8.46667"
       id="path13"
       sodipodi:nodetypes="csc" />
    <path
       style="fill:#ffe680;fill-opacity:1;stroke:#000000;stroke-width:2.11667;stroke-dasharray:none"
       d="M 42.333333,212.40699 C 38.1,212.40699 38.1,210.40008 38.1,208.9167 c 0,-1.48339 4.233333,-1.48339 4.233333,-1.48339 0,0 0,-4.23333 -4.233333,-4.23333"
       id="path14" />
    <path
       style="fill:none;stroke:#000000;stroke-width:2.11667;stroke-dasharray:none"
       d="m 59.266666,198.96665 16.933333,16.93333"
       id="path1" />
    <path
       style="fill:none;stroke:#000000;stroke-width:2.11667;stroke-dasharray:none"
       d="M 76.199999,198.96665 59.266666,215.89998"
       id="path3" />
    <path
       style="fill:none;stroke:#000000;stroke-width:2.11667;stroke-dasharray:none"
       d="m 80.433332,198.96665 16.933333,16.93333"
       id="path7" />
    <path
       style="fill:none;stroke:#000000;stroke-width:2.11667;stroke-dasharray:none"
       d="M 97.366665,198.96665 80.433332,215.89998"
       id="path9" />
    <path
       style="fill:none;stroke:#000000;stroke-width:2.11667;stroke-dasharray:none"
       d="m 80.433332,241.29998 8.466664,15.87499"
       id="path12" />
    <path
       style="fill:#000000;fill-opacity:1;stroke:#000000;stroke-width:2.11667;stroke-dasharray:none"
       id="path17"
       d="m 60.792761,106.47888 c 1.336003,-0.29603 2.66354,-0.64687 3.980802,-1.02313 1.209884,-0.32711 2.440422,-0.60097 3.597817,-1.09376 0.615495,-0.26206 0.738302,-0.35386 1.30596,-0.67928 1.192194,-0.67652 1.880915,-1.70241 2.559201,-2.85271 0.629335,-1.193982 1.200883,-2.417135 1.823974,-3.614396 0.426958,-0.856191 0.909664,-1.955749 0.781388,-2.934541 -0.0263,-0.200755 -0.09687,-0.393184 -0.145309,-0.589778 -0.343548,-0.798038 -1.00548,-1.365546 -1.74321,-1.798521 -3.605789,-2.11623 -2.498939,-1.602041 -4.380669,-2.432722 -1.073367,-0.497247 -2.233469,-0.674232 -3.400491,-0.770006 -1.161375,-0.03982 -2.3202,-0.134601 -3.480946,-0.191775 -1.02064,-0.06148 -1.83552,-0.08979 -2.827252,0.193307 -0.546947,0.189145 -1.12467,0.326374 -1.649881,0.575384 -0.245877,0.116573 -0.444503,0.252386 -0.673071,0.39756 -0.610722,0.415161 -0.833538,0.947166 -0.958085,1.646079 -0.107797,0.787726 -0.123373,1.126519 0.375806,1.782257 0.345006,0.336156 0.703953,0.660419 1.125588,0.899806 2.6842,1.523995 2.797728,1.918642 4.862377,2.372336 1.255406,0.236717 2.546686,0.195104 3.817403,0.146074 1.014526,-0.05693 2.040686,-0.03937 3.045084,-0.218371 0.03287,-0.0058 1.63517,-0.368687 1.661295,-0.374595 1.60568,-0.32077 3.163422,-0.804428 4.709105,-1.336199 1.499608,-0.616338 2.8264,-1.545047 4.134905,-2.485249 0.741723,-0.539327 1.416976,-1.184363 1.95606,-1.929585 0.30417,-0.420484 0.423566,-0.677627 0.669149,-1.132806 0.535446,-1.170368 0.692539,-2.403951 0.518478,-3.67661 -0.04174,-0.305163 -0.114562,-0.605261 -0.171842,-0.907891 -0.388347,-1.727105 -1.210093,-3.29174 -2.1425,-4.779331 -0.14224,-0.203858 -0.270447,-0.418263 -0.42672,-0.611576 -0.222152,-0.274809 -0.770575,-0.845635 -1.08462,-1.038968 -2.64826,-1.630336 -3.072582,-2.018279 -5.294503,-2.750693 -1.947518,-0.617866 -4.006008,-0.739767 -6.02611,-0.958282 -1.102701,-0.13255 -2.213732,-0.166626 -3.319793,-0.253764 -0.897105,-0.07067 -1.789711,-0.198546 -2.682822,-0.306194 -1.607984,-0.15992 -3.209362,-0.368343 -4.821415,-0.48573 -1.180367,-0.04709 -2.365407,-0.141362 -3.547737,-0.116822 -0.721479,0.01498 -1.154123,0.07379 -1.871533,0.146939 -1.641472,0.170254 -3.218392,0.662035 -4.776613,1.181354 -1.114766,0.386522 -2.115359,0.966679 -3.027489,1.707142 -0.688457,0.600218 -0.912183,1.180738 -1.078492,2.051307 -0.01707,0.507632 -0.0236,1.066903 0.188934,1.543206 0.137657,0.308514 0.270218,0.440912 0.478086,0.701892 1.678765,1.566399 3.734511,2.779995 5.912736,3.508716 1.325893,0.44559 2.695736,0.707811 4.077822,0.900856 2.216861,0.184904 4.42867,0.422196 6.643565,0.627319 3.433591,0.253386 6.878873,0.316929 10.320515,0.369271 3.216124,0.04592 6.432606,0.02976 9.648881,0.05546 2.183331,0.0123 4.366519,0.03478 6.54962,0.06849 0.925488,0.04629 1.847852,0.01275 2.770473,-0.0588 0.914982,-0.03528 1.827564,-0.08569 2.740943,-0.150749 0.884716,-0.09951 1.770258,-0.190783 2.657946,-0.259101 0,0 -3.13332,-2.231443 -3.13332,-2.231443 v 0 c -0.863182,0.098 -1.722059,0.236889 -2.5898,0.291743 -0.94578,0.04727 -1.891877,0.03725 -2.837262,0.09039 -0.869069,0.06966 -1.735751,0.165018 -2.610318,0.137605 -2.115881,0.0365 -4.231857,0.06248 -6.348005,0.07797 -3.187481,0.02949 -6.375136,0.02096 -9.562666,0.0013 -3.466672,-0.04248 -6.938632,-0.09663 -10.389939,-0.457292 -2.277057,-0.250471 -4.550275,-0.5347 -6.827353,-0.785091 -1.389968,-0.218598 -2.762258,-0.529497 -4.088598,-1.006755 -1.28305,-0.520414 -3.417486,-1.80353 1.784201,1.185233 0.147619,0.08482 -0.290039,-0.178798 -0.429207,-0.276871 -0.133633,-0.09417 -0.260223,-0.197993 -0.388477,-0.299368 -0.120822,-0.0955 -0.239125,-0.194141 -0.358688,-0.291211 -0.105243,-0.111501 -0.415795,-0.42886 -0.505944,-0.56742 -0.257569,-0.395891 -0.293526,-0.903933 -0.281321,-1.359945 0.105008,-0.759137 0.306602,-1.31599 0.900478,-1.83783 0.846815,-0.727652 1.826617,-1.252974 2.871809,-1.643203 1.515504,-0.529339 3.059927,-0.984292 4.662715,-1.154851 1.800574,-0.155038 3.603082,-0.09944 5.404408,0.03726 1.616297,0.137406 3.221675,0.361928 4.836721,0.510981 1.958993,0.1919 3.922233,0.30099 5.882875,0.471075 2.048126,0.227891 4.125447,0.433184 6.085216,1.106617 0.257884,0.09515 0.519602,0.180483 0.773649,0.285446 0.823979,0.340439 3.948044,2.001732 -1.857552,-1.192644 -0.212307,-0.116816 0.400412,0.274368 0.586216,0.429919 0.558916,0.467918 0.563883,0.541544 1.001977,1.118336 0.951373,1.449181 1.818426,2.964912 2.231652,4.665897 0.05555,0.286642 0.127013,0.570654 0.166656,0.859925 0.163049,1.189713 0.03019,2.362777 -0.478465,3.455475 -0.630925,1.166106 -1.411753,2.159904 -2.497793,2.942367 -1.282129,0.926108 -2.579836,1.855502 -4.084873,2.389339 -1.522246,0.535847 -3.061999,1.018944 -4.649735,1.324221 -0.586846,0.126772 -1.069528,0.243027 -1.664795,0.324149 -0.997635,0.135953 -2.008921,0.153072 -3.012842,0.201152 -1.281668,0.0097 -2.577476,-0.0063 -3.835125,-0.281707 -1.61712,-0.435767 -2.506036,-1.254112 1.701048,1.298072 0.146246,0.08872 -0.311449,-0.144473 -0.454472,-0.238305 -0.12519,-0.08213 -0.230364,-0.191323 -0.345781,-0.286705 -0.101288,-0.08371 -0.202885,-0.167042 -0.304329,-0.250563 -0.529288,-0.44431 -0.5983,-0.779267 -0.509371,-1.453703 0.08108,-0.569082 0.257353,-1.05028 0.767776,-1.373111 0.688547,-0.415073 1.446379,-0.685345 2.22068,-0.896413 0.90855,-0.185913 1.827996,-0.159531 2.751254,-0.113716 1.15997,0.04634 2.317924,0.122108 3.475524,0.209185 1.131366,0.111429 2.242942,0.333838 3.273203,0.836988 1.473605,0.720863 1.093872,0.554226 -2.056493,-1.266954 -0.185412,-0.107183 0.3668,0.221387 0.545616,0.33924 0.499147,0.328978 0.978866,0.670685 1.278319,1.203722 0.13412,0.380299 0.263906,0.631225 0.247631,1.046025 -0.0076,0.194181 -0.0649,0.383461 -0.109217,0.572672 -0.135583,0.578887 -0.348348,1.132052 -0.618197,1.661359 -0.199125,0.386159 -0.408463,0.767204 -0.597987,1.158166 -0.396131,0.817176 -0.729906,1.665684 -1.211408,2.440276 -0.633164,1.067206 -1.353534,2.058476 -2.44842,2.695346 -0.535059,0.31246 -0.656182,0.4028 -1.235879,0.65811 -1.122971,0.49459 -2.320102,0.78876 -3.500281,1.10875 -1.397866,0.33655 -2.805192,0.67819 -4.24111,0.79995 z" />
  </g>
</svg>
